<?xml version="1.0" standalone="yes"?>

<svg version="1.1" viewBox="0.0 0.0 699.0 429.0" fill="none" stroke="none" stroke-linecap="square" stroke-miterlimit="10" xmlns="http://www.w3.org/2000/svg" xmlns:xlink="http://www.w3.org/1999/xlink"><clipPath id="p.0"><path d="m0 0l699.0 0l0 429.0l-699.0 0l0 -429.0z" clip-rule="nonzero"></path></clipPath><g clip-path="url(#p.0)"><path fill="#000000" fill-opacity="0.0" d="m0 0l699.8189 0l0 429.75592l-699.8189 0z" fill-rule="nonzero"></path><path fill="#3d85c6" d="m362.06262 65.23626l0 0c-1.6157532 -12.434353 3.6891174 -24.74361 13.663605 -31.704498c9.974457 -6.960888 22.869202 -7.3526173 33.212524 -1.0089645l0 0c3.6639404 -7.229849 10.369965 -12.221561 18.089691 -13.4652405c7.7197266 -1.243679 15.546387 1.4067497 21.11261 7.149584l0 0c3.1212158 -6.555046 9.249725 -10.9592 16.210815 -11.649638c6.9611206 -0.6904383 13.769684 2.4305525 18.009644 8.255485l0 0c5.6388855 -6.948333 14.610474 -9.87387 23.032745 -7.5107145c8.422272 2.3631544 14.78244 9.590558 16.328522 18.55487l0 0c6.9085693 1.9733543 12.663269 6.989887 15.777283 13.753483c3.1140137 6.7635994 3.2817993 14.610767 0.460083 21.514053l0 0c6.8029175 9.271858 8.394348 21.626503 4.180237 32.4534c-4.2140503 10.826889 -13.600403 18.499413 -24.656311 20.15432c-0.07788086 10.16143 -5.399658 19.485435 -13.91394 24.378136c-8.514282 4.8927 -18.891602 4.590088 -27.13211 -0.79119873c-3.5100098 12.170059 -13.389496 21.12468 -25.370209 22.995117c-11.980682 1.8704529 -23.914795 -3.6785889 -30.646332 -14.249725c-8.251465 5.210541 -18.152527 6.7115326 -27.469727 4.164383c-9.317169 -2.5471497 -17.265656 -8.927902 -22.052399 -17.702866l0 0c-8.431976 1.0332794 -16.584503 -3.5414886 -20.41153 -11.453842c-3.827057 -7.912369 -2.513916 -17.477974 3.2876892 -23.949455l0 0c-7.521515 -4.6358566 -11.359436 -13.834938 -9.512451 -22.800285c1.8469849 -8.96534 8.960358 -15.665367 17.630768 -16.606277z" fill-rule="nonzero"></path><path fill="#000000" fill-opacity="0.0" d="m353.77765 105.12206l0 0c3.5494385 2.1876755 7.6498413 3.1800537 11.750732 2.8439026m5.3712463 32.56019c1.7635193 -0.21611023 3.492096 -0.6737366 5.1411743 -1.3610992m44.37851 14.899002c-1.2403564 -1.9478302 -2.278839 -4.029251 -3.0977783 -6.2088013m59.116455 -2.5369568l0 0c0.6399231 -2.2187805 1.0545349 -4.5023956 1.2369385 -6.812729m39.807556 -16.773346c0.08294678 -10.818405 -5.7847595 -20.723846 -15.082825 -25.461647m35.558716 -27.144936c-1.5057983 3.683876 -3.8045654 6.951782 -6.7160645 9.547508m-9.519897 -44.816006l0 0c0.25653076 1.4876328 0.37530518 2.9976196 0.35455322 4.509041m-39.71518 -15.552748l0 0c-1.4066162 1.7332649 -2.5654907 3.670164 -3.4405212 5.750389m-30.780243 -2.3569908l0 0c-0.7496033 1.5743103 -1.3093567 3.2402 -1.6663818 4.9592953m-37.5365 1.3564911l0 0c2.1886597 1.3423157 4.21344 2.9579315 6.029907 4.811363m-52.905426 27.902275l0 0c0.22268677 1.7137756 0.57455444 3.4064255 1.0523071 5.0621033" fill-rule="nonzero"></path><path stroke="#000000" stroke-width="2.0" stroke-linejoin="round" stroke-linecap="butt" d="m362.06262 65.23626l0 0c-1.6157532 -12.434353 3.6891174 -24.74361 13.663605 -31.704498c9.974457 -6.960888 22.869202 -7.3526173 33.212524 -1.0089645l0 0c3.6639404 -7.229849 10.369965 -12.221561 18.089691 -13.4652405c7.7197266 -1.243679 15.546387 1.4067497 21.11261 7.149584l0 0c3.1212158 -6.555046 9.249725 -10.9592 16.210815 -11.649638c6.9611206 -0.6904383 13.769684 2.4305525 18.009644 8.255485l0 0c5.6388855 -6.948333 14.610474 -9.87387 23.032745 -7.5107145c8.422272 2.3631544 14.78244 9.590558 16.328522 18.55487l0 0c6.9085693 1.9733543 12.663269 6.989887 15.777283 13.753483c3.1140137 6.7635994 3.2817993 14.610767 0.460083 21.514053l0 0c6.8029175 9.271858 8.394348 21.626503 4.180237 32.4534c-4.2140503 10.826889 -13.600403 18.499413 -24.656311 20.15432c-0.07788086 10.16143 -5.399658 19.485435 -13.91394 24.378136c-8.514282 4.8927 -18.891602 4.590088 -27.13211 -0.79119873c-3.5100098 12.170059 -13.389496 21.12468 -25.370209 22.995117c-11.980682 1.8704529 -23.914795 -3.6785889 -30.646332 -14.249725c-8.251465 5.210541 -18.152527 6.7115326 -27.469727 4.164383c-9.317169 -2.5471497 -17.265656 -8.927902 -22.052399 -17.702866l0 0c-8.431976 1.0332794 -16.584503 -3.5414886 -20.41153 -11.453842c-3.827057 -7.912369 -2.513916 -17.477974 3.2876892 -23.949455l0 0c-7.521515 -4.6358566 -11.359436 -13.834938 -9.512451 -22.800285c1.8469849 -8.96534 8.960358 -15.665367 17.630768 -16.606277z" fill-rule="nonzero"></path><path stroke="#000000" stroke-width="2.0" stroke-linejoin="round" stroke-linecap="butt" d="m353.77765 105.12206l0 0c3.5494385 2.1876755 7.6498413 3.1800537 11.750732 2.8439026m5.3712463 32.56019c1.7635193 -0.21611023 3.492096 -0.6737366 5.1411743 -1.3610992m44.37851 14.899002c-1.2403564 -1.9478302 -2.278839 -4.029251 -3.0977783 -6.2088013m59.116455 -2.5369568l0 0c0.6399231 -2.2187805 1.0545349 -4.5023956 1.2369385 -6.812729m39.807556 -16.773346c0.08294678 -10.818405 -5.7847595 -20.723846 -15.082825 -25.461647m35.558716 -27.144936c-1.5057983 3.683876 -3.8045654 6.951782 -6.7160645 9.547508m-9.519897 -44.816006l0 0c0.25653076 1.4876328 0.37530518 2.9976196 0.35455322 4.509041m-39.71518 -15.552748l0 0c-1.4066162 1.7332649 -2.5654907 3.670164 -3.4405212 5.750389m-30.780243 -2.3569908l0 0c-0.7496033 1.5743103 -1.3093567 3.2402 -1.6663818 4.9592953m-37.5365 1.3564911l0 0c2.1886597 1.3423157 4.21344 2.9579315 6.029907 4.811363m-52.905426 27.902275l0 0c0.22268677 1.7137756 0.57455444 3.4064255 1.0523071 5.0621033" fill-rule="nonzero"></path><path fill="#ffffff" d="m398.9746 90.88596q0 -4.609375 2.5625 -6.828125q2.140625 -1.84375 5.21875 -1.84375q3.421875 0 5.59375 2.25q2.171875 2.234375 2.171875 6.1875q0 3.203125 -0.96875 5.046875q-0.953125 1.828125 -2.796875 2.84375q-1.828125 1.015625 -4.0 1.015625q-3.484375 0 -5.640625 -2.234375q-2.140625 -2.234375 -2.140625 -6.4375zm2.890625 0q0 3.1875 1.390625 4.78125q1.390625 1.578125 3.5 1.578125q2.09375 0 3.484375 -1.59375q1.390625 -1.59375 1.390625 -4.859375q0 -3.078125 -1.40625 -4.65625q-1.390625 -1.59375 -3.46875 -1.59375q-2.109375 0 -3.5 1.578125q-1.390625 1.578125 -1.390625 4.765625zm15.921875 8.296875l0 -16.59375l2.53125 0l0 2.515625q0.96875 -1.765625 1.78125 -2.328125q0.828125 -0.5625 1.8125 -0.5625q1.421875 0 2.890625 0.90625l-0.96875 2.609375q-1.03125 -0.609375 -2.0625 -0.609375q-0.921875 0 -1.65625 0.5625q-0.734375 0.546875 -1.046875 1.53125q-0.46875 1.5 -0.46875 3.28125l0 8.6875l-2.8125 0zm10.703125 -19.671875l0 -3.234375l2.8125 0l0 3.234375l-2.8125 0zm0 19.671875l0 -16.59375l2.8125 0l0 16.59375l-2.8125 0zm6.578125 1.375l2.734375 0.40625q0.171875 1.265625 0.953125 1.84375q1.046875 0.78125 2.859375 0.78125q1.953125 0 3.015625 -0.78125q1.0625 -0.78125 1.4375 -2.1875q0.21875 -0.859375 0.203125 -3.609375q-1.84375 2.171875 -4.59375 2.171875q-3.421875 0 -5.296875 -2.46875q-1.875 -2.46875 -1.875 -5.921875q0 -2.375 0.859375 -4.375q0.859375 -2.015625 2.484375 -3.109375q1.640625 -1.09375 3.84375 -1.09375q2.9375 0 4.84375 2.375l0 -2.0l2.59375 0l0 14.34375q0 3.875 -0.796875 5.484375q-0.78125 1.625 -2.5 2.5625q-1.703125 0.9375 -4.203125 0.9375q-2.96875 0 -4.796875 -1.34375q-1.828125 -1.328125 -1.765625 -4.015625zm2.328125 -9.96875q0 3.265625 1.296875 4.765625q1.296875 1.5 3.25 1.5q1.9375 0 3.25 -1.484375q1.3125 -1.5 1.3125 -4.6875q0 -3.046875 -1.359375 -4.59375q-1.34375 -1.546875 -3.25 -1.546875q-1.875 0 -3.1875 1.53125q-1.3125 1.515625 -1.3125 4.515625zm16.0 -11.078125l0 -3.234375l2.8125 0l0 3.234375l-2.8125 0zm0 19.671875l0 -16.59375l2.8125 0l0 16.59375l-2.8125 0zm7.09375 0l0 -16.59375l2.53125 0l0 2.359375q1.828125 -2.734375 5.28125 -2.734375q1.5 0 2.75 0.546875q1.265625 0.53125 1.890625 1.40625q0.625 0.875 0.875 2.078125q0.15625 0.78125 0.15625 2.734375l0 10.203125l-2.8125 0l0 -10.09375q0 -1.71875 -0.328125 -2.5625q-0.328125 -0.859375 -1.171875 -1.359375q-0.828125 -0.515625 -1.953125 -0.515625q-1.796875 0 -3.109375 1.140625q-1.296875 1.140625 -1.296875 4.328125l0 9.0625l-2.8125 0z" fill-rule="nonzero"></path><path fill="#3d85c6" d="m212.78215 226.7559l189.03938 0l0 189.03938l-189.03938 0z" fill-rule="nonzero"></path><path stroke="#000000" stroke-width="2.0" stroke-linejoin="round" stroke-linecap="butt" d="m212.78215 226.7559l189.03938 0l0 189.03938l-189.03938 0z" fill-rule="nonzero"></path><path fill="#ffffff" d="m246.91406 323.42996l1.796875 0.453125q-0.5625 2.21875 -2.03125 3.390625q-1.46875 1.15625 -3.59375 1.15625q-2.203125 0 -3.578125 -0.890625q-1.375 -0.90625 -2.09375 -2.59375q-0.71875 -1.703125 -0.71875 -3.65625q0 -2.125 0.796875 -3.703125q0.8125 -1.578125 2.3125 -2.390625q1.5 -0.828125 3.296875 -0.828125q2.046875 0 3.4375 1.046875q1.390625 1.03125 1.9375 2.90625l-1.765625 0.421875q-0.46875 -1.484375 -1.375 -2.15625q-0.90625 -0.6875 -2.265625 -0.6875q-1.5625 0 -2.625 0.75q-1.046875 0.75 -1.484375 2.03125q-0.421875 1.265625 -0.421875 2.609375q0 1.734375 0.5 3.03125q0.515625 1.28125 1.578125 1.921875q1.078125 0.640625 2.3125 0.640625q1.515625 0 2.5625 -0.859375q1.046875 -0.875 1.421875 -2.59375zm3.5198212 4.765625l0 -13.59375l1.671875 0l0 13.59375l-1.671875 0zm3.5510712 -4.921875q0 -2.734375 1.53125 -4.0625q1.265625 -1.09375 3.09375 -1.09375q2.03125 0 3.3125 1.34375q1.296875 1.328125 1.296875 3.671875q0 1.90625 -0.578125 3.0q-0.5625 1.078125 -1.65625 1.6875q-1.078125 0.59375 -2.375 0.59375q-2.0625 0 -3.34375 -1.328125q-1.28125 -1.328125 -1.28125 -3.8125zm1.71875 0q0 1.890625 0.828125 2.828125q0.828125 0.9375 2.078125 0.9375q1.25 0 2.0625 -0.9375q0.828125 -0.953125 0.828125 -2.890625q0 -1.828125 -0.828125 -2.765625q-0.828125 -0.9375 -2.0625 -0.9375q-1.25 0 -2.078125 0.9375q-0.828125 0.9375 -0.828125 2.828125zm9.281952 4.921875l0 -9.859375l1.5 0l0 1.40625q1.09375 -1.625 3.140625 -1.625q0.890625 0 1.640625 0.328125q0.75 0.3125 1.109375 0.84375q0.375 0.515625 0.53125 1.21875q0.09375 0.46875 0.09375 1.625l0 6.0625l-1.671875 0l0 -6.0q0 -1.015625 -0.203125 -1.515625q-0.1875 -0.515625 -0.6875 -0.8125q-0.5 -0.296875 -1.171875 -0.296875q-1.0625 0 -1.84375 0.671875q-0.765625 0.671875 -0.765625 2.578125l0 5.375l-1.671875 0zm17.125732 -3.171875l1.71875 0.21875q-0.40625 1.5 -1.515625 2.34375q-1.09375 0.828125 -2.8125 0.828125q-2.15625 0 -3.421875 -1.328125q-1.265625 -1.328125 -1.265625 -3.734375q0 -2.484375 1.265625 -3.859375q1.28125 -1.375 3.328125 -1.375q1.984375 0 3.234375 1.34375q1.25 1.34375 1.25 3.796875q0 0.140625 -0.015625 0.4375l-7.34375 0q0.09375 1.625 0.921875 2.484375q0.828125 0.859375 2.0625 0.859375q0.90625 0 1.546875 -0.46875q0.65625 -0.484375 1.046875 -1.546875zm-5.484375 -2.703125l5.5 0q-0.109375 -1.234375 -0.625 -1.859375q-0.796875 -0.96875 -2.078125 -0.96875q-1.140625 0 -1.9375 0.78125q-0.78125 0.765625 -0.859375 2.046875zm13.668396 0.953125q0 -2.734375 1.53125 -4.0625q1.265625 -1.09375 3.09375 -1.09375q2.03125 0 3.3125 1.34375q1.296875 1.328125 1.296875 3.671875q0 1.90625 -0.578125 3.0q-0.5625 1.078125 -1.65625 1.6875q-1.078125 0.59375 -2.375 0.59375q-2.0625 0 -3.34375 -1.328125q-1.28125 -1.328125 -1.28125 -3.8125zm1.71875 0q0 1.890625 0.828125 2.828125q0.828125 0.9375 2.078125 0.9375q1.25 0 2.0625 -0.9375q0.828125 -0.953125 0.828125 -2.890625q0 -1.828125 -0.828125 -2.765625q-0.828125 -0.9375 -2.0625 -0.9375q-1.25 0 -2.078125 0.9375q-0.828125 0.9375 -0.828125 2.828125zm9.281952 4.921875l0 -9.859375l1.5 0l0 1.40625q1.09375 -1.625 3.140625 -1.625q0.890625 0 1.640625 0.328125q0.75 0.3125 1.109375 0.84375q0.375 0.515625 0.53125 1.21875q0.09375 0.46875 0.09375 1.625l0 6.0625l-1.671875 0l0 -6.0q0 -1.015625 -0.203125 -1.515625q-0.1875 -0.515625 -0.6875 -0.8125q-0.5 -0.296875 -1.171875 -0.296875q-1.0625 0 -1.84375 0.671875q-0.765625 0.671875 -0.765625 2.578125l0 5.375l-1.671875 0zm14.277771 0l5.234375 -13.59375l1.9375 0l5.5625 13.59375l-2.046875 0l-1.59375 -4.125l-5.6875 0l-1.484375 4.125l-1.921875 0zm3.921875 -5.578125l4.609375 0l-1.40625 -3.78125q-0.65625 -1.703125 -0.96875 -2.8125q-0.265625 1.3125 -0.734375 2.59375l-1.5 4.0zm9.802948 5.578125l0 -9.859375l1.5 0l0 1.40625q1.09375 -1.625 3.140625 -1.625q0.890625 0 1.640625 0.328125q0.75 0.3125 1.109375 0.84375q0.375 0.515625 0.53125 1.21875q0.09375 0.46875 0.09375 1.625l0 6.0625l-1.671875 0l0 -6.0q0 -1.015625 -0.203125 -1.515625q-0.1875 -0.515625 -0.6875 -0.8125q-0.5 -0.296875 -1.171875 -0.296875q-1.0625 0 -1.84375 0.671875q-0.765625 0.671875 -0.765625 2.578125l0 5.375l-1.671875 0zm16.766357 0l0 -1.25q-0.9375 1.46875 -2.75 1.46875q-1.171875 0 -2.171875 -0.640625q-0.984375 -0.65625 -1.53125 -1.8125q-0.53125 -1.171875 -0.53125 -2.6875q0 -1.46875 0.484375 -2.671875q0.5 -1.203125 1.46875 -1.84375q0.984375 -0.640625 2.203125 -0.640625q0.890625 0 1.578125 0.375q0.703125 0.375 1.140625 0.984375l0 -4.875l1.65625 0l0 13.59375l-1.546875 0zm-5.28125 -4.921875q0 1.890625 0.796875 2.828125q0.8125 0.9375 1.890625 0.9375q1.09375 0 1.859375 -0.890625q0.765625 -0.890625 0.765625 -2.734375q0 -2.015625 -0.78125 -2.953125q-0.78125 -0.953125 -1.921875 -0.953125q-1.109375 0 -1.859375 0.90625q-0.75 0.90625 -0.75 2.859375zm9.250732 4.921875l0 -9.859375l1.5 0l0 1.5q0.578125 -1.046875 1.0625 -1.375q0.484375 -0.34375 1.078125 -0.34375q0.84375 0 1.71875 0.546875l-0.578125 1.546875q-0.609375 -0.359375 -1.234375 -0.359375q-0.546875 0 -0.984375 0.328125q-0.421875 0.328125 -0.609375 0.90625q-0.28125 0.890625 -0.28125 1.953125l0 5.15625l-1.671875 0zm12.978302 -3.171875l1.71875 0.21875q-0.40625 1.5 -1.515625 2.34375q-1.09375 0.828125 -2.8125 0.828125q-2.15625 0 -3.421875 -1.328125q-1.265625 -1.328125 -1.265625 -3.734375q0 -2.484375 1.265625 -3.859375q1.28125 -1.375 3.328125 -1.375q1.984375 0 3.234375 1.34375q1.25 1.34375 1.25 3.796875q0 0.140625 -0.015625 0.4375l-7.34375 0q0.09375 1.625 0.921875 2.484375q0.828125 0.859375 2.0625 0.859375q0.90625 0 1.546875 -0.46875q0.65625 -0.484375 1.046875 -1.546875zm-5.484375 -2.703125l5.5 0q-0.109375 -1.234375 -0.625 -1.859375q-0.796875 -0.96875 -2.078125 -0.96875q-1.140625 0 -1.9375 0.78125q-0.78125 0.765625 -0.859375 2.046875zm10.938202 5.875l-3.015625 -9.859375l1.71875 0l1.5625 5.6875l0.59375 2.125q0.03125 -0.15625 0.5 -2.03125l1.578125 -5.78125l1.71875 0l1.46875 5.71875l0.484375 1.890625l0.578125 -1.90625l1.6875 -5.703125l1.625 0l-3.078125 9.859375l-1.734375 0l-1.578125 -5.90625l-0.375 -1.671875l-2.0 7.578125l-1.734375 0z" fill-rule="nonzero"></path><path fill="#3d85c6" d="m493.23358 226.7559l189.03937 0l0 189.03938l-189.03937 0z" fill-rule="nonzero"></path><path stroke="#000000" stroke-width="2.0" stroke-linejoin="round" stroke-linecap="butt" d="m493.23358 226.7559l189.03937 0l0 189.03938l-189.03937 0z" fill-rule="nonzero"></path><path fill="#ffffff" d="m530.4627 323.42996l1.796875 0.453125q-0.5625 2.21875 -2.03125 3.390625q-1.46875 1.15625 -3.59375 1.15625q-2.203125 0 -3.578125 -0.890625q-1.375 -0.90625 -2.09375 -2.59375q-0.71875 -1.703125 -0.71875 -3.65625q0 -2.125 0.796875 -3.703125q0.8125 -1.578125 2.3125 -2.390625q1.5 -0.828125 3.296875 -0.828125q2.046875 0 3.4375 1.046875q1.390625 1.03125 1.9375 2.90625l-1.765625 0.421875q-0.46875 -1.484375 -1.375 -2.15625q-0.90625 -0.6875 -2.265625 -0.6875q-1.5625 0 -2.625 0.75q-1.046875 0.75 -1.484375 2.03125q-0.421875 1.265625 -0.421875 2.609375q0 1.734375 0.5 3.03125q0.515625 1.28125 1.578125 1.921875q1.078125 0.640625 2.3125 0.640625q1.515625 0 2.5625 -0.859375q1.046875 -0.875 1.421875 -2.59375zm3.5198364 4.765625l0 -13.59375l1.671875 0l0 13.59375l-1.671875 0zm3.5510864 -4.921875q0 -2.734375 1.53125 -4.0625q1.265625 -1.09375 3.09375 -1.09375q2.03125 0 3.3125 1.34375q1.296875 1.328125 1.296875 3.671875q0 1.90625 -0.578125 3.0q-0.5625 1.078125 -1.65625 1.6875q-1.078125 0.59375 -2.375 0.59375q-2.0625 0 -3.34375 -1.328125q-1.28125 -1.328125 -1.28125 -3.8125zm1.71875 0q0 1.890625 0.828125 2.828125q0.828125 0.9375 2.078125 0.9375q1.25 0 2.0625 -0.9375q0.828125 -0.953125 0.828125 -2.890625q0 -1.828125 -0.828125 -2.765625q-0.828125 -0.9375 -2.0625 -0.9375q-1.25 0 -2.078125 0.9375q-0.828125 0.9375 -0.828125 2.828125zm9.281982 4.921875l0 -9.859375l1.5 0l0 1.40625q1.09375 -1.625 3.140625 -1.625q0.890625 0 1.640625 0.328125q0.75 0.3125 1.109375 0.84375q0.375 0.515625 0.53125 1.21875q0.09375 0.46875 0.09375 1.625l0 6.0625l-1.671875 0l0 -6.0q0 -1.015625 -0.203125 -1.515625q-0.1875 -0.515625 -0.6875 -0.8125q-0.5 -0.296875 -1.171875 -0.296875q-1.0625 0 -1.84375 0.671875q-0.765625 0.671875 -0.765625 2.578125l0 5.375l-1.671875 0zm17.125671 -3.171875l1.71875 0.21875q-0.40625 1.5 -1.515625 2.34375q-1.09375 0.828125 -2.8125 0.828125q-2.15625 0 -3.421875 -1.328125q-1.265625 -1.328125 -1.265625 -3.734375q0 -2.484375 1.265625 -3.859375q1.28125 -1.375 3.328125 -1.375q1.984375 0 3.234375 1.34375q1.25 1.34375 1.25 3.796875q0 0.140625 -0.015625 0.4375l-7.34375 0q0.09375 1.625 0.921875 2.484375q0.828125 0.859375 2.0625 0.859375q0.90625 0 1.546875 -0.46875q0.65625 -0.484375 1.046875 -1.546875zm-5.484375 -2.703125l5.5 0q-0.109375 -1.234375 -0.625 -1.859375q-0.796875 -0.96875 -2.078125 -0.96875q-1.140625 0 -1.9375 0.78125q-0.78125 0.765625 -0.859375 2.046875zm13.668396 0.953125q0 -2.734375 1.53125 -4.0625q1.265625 -1.09375 3.09375 -1.09375q2.03125 0 3.3125 1.34375q1.296875 1.328125 1.296875 3.671875q0 1.90625 -0.578125 3.0q-0.5625 1.078125 -1.65625 1.6875q-1.078125 0.59375 -2.375 0.59375q-2.0625 0 -3.34375 -1.328125q-1.28125 -1.328125 -1.28125 -3.8125zm1.71875 0q0 1.890625 0.828125 2.828125q0.828125 0.9375 2.078125 0.9375q1.25 0 2.0625 -0.9375q0.828125 -0.953125 0.828125 -2.890625q0 -1.828125 -0.828125 -2.765625q-0.828125 -0.9375 -2.0625 -0.9375q-1.25 0 -2.078125 0.9375q-0.828125 0.9375 -0.828125 2.828125zm9.281982 4.921875l0 -9.859375l1.5 0l0 1.40625q1.09375 -1.625 3.140625 -1.625q0.890625 0 1.640625 0.328125q0.75 0.3125 1.109375 0.84375q0.375 0.515625 0.53125 1.21875q0.09375 0.46875 0.09375 1.625l0 6.0625l-1.671875 0l0 -6.0q0 -1.015625 -0.203125 -1.515625q-0.1875 -0.515625 -0.6875 -0.8125q-0.5 -0.296875 -1.171875 -0.296875q-1.0625 0 -1.84375 0.671875q-0.765625 0.671875 -0.765625 2.578125l0 5.375l-1.671875 0zm15.699646 0l0 -13.59375l1.796875 0l0 11.984375l6.703125 0l0 1.609375l-8.5 0zm16.672607 -1.21875q-0.9375 0.796875 -1.796875 1.125q-0.859375 0.3125 -1.84375 0.3125q-1.609375 0 -2.484375 -0.78125q-0.875 -0.796875 -0.875 -2.03125q0 -0.734375 0.328125 -1.328125q0.328125 -0.59375 0.859375 -0.953125q0.53125 -0.359375 1.203125 -0.546875q0.5 -0.140625 1.484375 -0.25q2.03125 -0.25 2.984375 -0.578125q0 -0.34375 0 -0.4375q0 -1.015625 -0.46875 -1.4375q-0.640625 -0.5625 -1.90625 -0.5625q-1.171875 0 -1.734375 0.40625q-0.5625 0.40625 -0.828125 1.46875l-1.640625 -0.234375q0.234375 -1.046875 0.734375 -1.6875q0.515625 -0.640625 1.46875 -0.984375q0.96875 -0.359375 2.25 -0.359375q1.265625 0 2.046875 0.296875q0.78125 0.296875 1.15625 0.75q0.375 0.453125 0.515625 1.140625q0.09375 0.421875 0.09375 1.53125l0 2.234375q0 2.328125 0.09375 2.953125q0.109375 0.609375 0.4375 1.171875l-1.75 0q-0.265625 -0.515625 -0.328125 -1.21875zm-0.140625 -3.71875q-0.90625 0.359375 -2.734375 0.625q-1.03125 0.140625 -1.453125 0.328125q-0.421875 0.1875 -0.65625 0.546875q-0.234375 0.359375 -0.234375 0.796875q0 0.671875 0.5 1.125q0.515625 0.4375 1.484375 0.4375q0.96875 0 1.71875 -0.421875q0.75 -0.4375 1.109375 -1.15625q0.265625 -0.578125 0.265625 -1.671875l0 -0.609375zm4.0788574 8.71875l0 -13.640625l1.53125 0l0 1.28125q0.53125 -0.75 1.203125 -1.125q0.6875 -0.375 1.640625 -0.375q1.265625 0 2.234375 0.65625q0.96875 0.640625 1.453125 1.828125q0.5 1.1875 0.5 2.59375q0 1.515625 -0.546875 2.734375q-0.546875 1.203125 -1.578125 1.84375q-1.03125 0.640625 -2.171875 0.640625q-0.84375 0 -1.515625 -0.34375q-0.65625 -0.359375 -1.078125 -0.890625l0 4.796875l-1.671875 0zm1.515625 -8.65625q0 1.90625 0.765625 2.8125q0.78125 0.90625 1.875 0.90625q1.109375 0 1.890625 -0.9375q0.796875 -0.9375 0.796875 -2.921875q0 -1.875 -0.78125 -2.8125q-0.765625 -0.9375 -1.84375 -0.9375q-1.0625 0 -1.890625 1.0q-0.8125 1.0 -0.8125 2.890625zm12.516296 3.375l0.234375 1.484375q-0.703125 0.140625 -1.265625 0.140625q-0.90625 0 -1.40625 -0.28125q-0.5 -0.296875 -0.703125 -0.75q-0.203125 -0.46875 -0.203125 -1.984375l0 -5.65625l-1.234375 0l0 -1.3125l1.234375 0l0 -2.4375l1.65625 -1.0l0 3.4375l1.6875 0l0 1.3125l-1.6875 0l0 5.75q0 0.71875 0.078125 0.921875q0.09375 0.203125 0.296875 0.328125q0.203125 0.125 0.578125 0.125q0.265625 0 0.734375 -0.078125zm0.9020996 -3.421875q0 -2.734375 1.53125 -4.0625q1.265625 -1.09375 3.09375 -1.09375q2.03125 0 3.3125 1.34375q1.296875 1.328125 1.296875 3.671875q0 1.90625 -0.578125 3.0q-0.5625 1.078125 -1.65625 1.6875q-1.078125 0.59375 -2.375 0.59375q-2.0625 0 -3.34375 -1.328125q-1.28125 -1.328125 -1.28125 -3.8125zm1.71875 0q0 1.890625 0.828125 2.828125q0.828125 0.9375 2.078125 0.9375q1.25 0 2.0625 -0.9375q0.828125 -0.953125 0.828125 -2.890625q0 -1.828125 -0.828125 -2.765625q-0.828125 -0.9375 -2.0625 -0.9375q-1.25 0 -2.078125 0.9375q-0.828125 0.9375 -0.828125 2.828125zm9.281921 8.703125l0 -13.640625l1.53125 0l0 1.28125q0.53125 -0.75 1.203125 -1.125q0.6875 -0.375 1.640625 -0.375q1.265625 0 2.234375 0.65625q0.96875 0.640625 1.453125 1.828125q0.5 1.1875 0.5 2.59375q0 1.515625 -0.546875 2.734375q-0.546875 1.203125 -1.578125 1.84375q-1.03125 0.640625 -2.171875 0.640625q-0.84375 0 -1.515625 -0.34375q-0.65625 -0.359375 -1.078125 -0.890625l0 4.796875l-1.671875 0zm1.515625 -8.65625q0 1.90625 0.765625 2.8125q0.78125 0.90625 1.875 0.90625q1.109375 0 1.890625 -0.9375q0.796875 -0.9375 0.796875 -2.921875q0 -1.875 -0.78125 -2.8125q-0.765625 -0.9375 -1.84375 -0.9375q-1.0625 0 -1.890625 1.0q-0.8125 1.0 -0.8125 2.890625z" fill-rule="nonzero"></path><path fill="#000000" fill-opacity="0.0" d="m273.72964 205.06299l61.984253 -50.614166" fill-rule="nonzero"></path><path stroke="#000000" stroke-width="2.0" stroke-linejoin="round" stroke-linecap="butt" d="m273.72964 205.06299l52.689423 -43.024323" fill-rule="evenodd"></path><path fill="#000000" stroke="#000000" stroke-width="2.0" stroke-linecap="butt" d="m328.50845 164.59743l4.9407654 -8.299332l-9.119568 3.1818085z" fill-rule="evenodd"></path><path fill="#000000" fill-opacity="0.0" d="m354.30447 157.54593l-56.81891 47.527557" fill-rule="nonzero"></path><path stroke="#000000" stroke-width="2.0" stroke-linejoin="round" stroke-linecap="butt" d="m354.30447 157.54593l-47.614502 39.828293" fill-rule="evenodd"></path><path fill="#000000" stroke="#000000" stroke-width="2.0" stroke-linecap="butt" d="m304.57047 194.84036l-4.8422546 8.357193l9.081299 -3.2894592z" fill-rule="evenodd"></path><path fill="#000000" fill-opacity="0.0" d="m504.08923 164.7769l58.86615 44.409454" fill-rule="nonzero"></path><path stroke="#000000" stroke-width="2.0" stroke-linejoin="round" stroke-linecap="butt" d="m504.08923 164.7769l49.286438 37.18242" fill-rule="evenodd"></path><path fill="#000000" stroke="#000000" stroke-width="2.0" stroke-linecap="butt" d="m551.38617 204.5965l9.235107 2.8289795l-5.2560425 -8.1033325z" fill-rule="evenodd"></path><path fill="#000000" fill-opacity="0.0" d="m583.62994 209.19685l-56.81891 -45.448822" fill-rule="nonzero"></path><path stroke="#000000" stroke-width="2.0" stroke-linejoin="round" stroke-linecap="butt" d="m583.62994 209.19685l-47.447998 -37.953125" fill-rule="evenodd"></path><path fill="#000000" stroke="#000000" stroke-width="2.0" stroke-linecap="butt" d="m538.2454 168.66403l-9.151184 -3.089676l5.024231 8.2491z" fill-rule="evenodd"></path><path fill="#3d85c6" d="m30.474699 65.23626l0 0c-1.6157665 -12.434353 3.6891155 -24.74361 13.663588 -31.704498c9.974472 -6.960888 22.869228 -7.3526173 33.212543 -1.0089645l0 0c3.6639252 -7.229849 10.369965 -12.221561 18.089684 -13.4652405c7.719719 -1.243679 15.546402 1.4067497 21.112625 7.149584l0 0c3.121193 -6.555046 9.249695 -10.9592 16.210808 -11.649638c6.9611206 -0.6904383 13.769669 2.4305525 18.009628 8.255485l0 0c5.6388855 -6.948333 14.610489 -9.87387 23.032745 -7.5107145c8.422272 2.3631544 14.782471 9.590558 16.328522 18.55487l0 0c6.9086 1.9733543 12.6633 6.989887 15.777298 13.753483c3.1139984 6.7635994 3.2818146 14.610767 0.46006775 21.514053l0 0c6.802948 9.271858 8.394333 21.626503 4.1802673 32.4534c-4.2140503 10.826889 -13.600433 18.499413 -24.656311 20.15432c-0.077926636 10.16143 -5.399658 19.485435 -13.91394 24.378136c-8.5142975 4.8927 -18.891632 4.590088 -27.132126 -0.79119873c-3.5100098 12.170059 -13.389511 21.12468 -25.370209 22.995117c-11.98069 1.8704529 -23.914795 -3.6785889 -30.64634 -14.249725c-8.251457 5.210541 -18.15252 6.7115326 -27.469711 4.164383c-9.317188 -2.5471497 -17.265667 -8.927902 -22.052422 -17.702866l0 0c-8.431955 1.0332794 -16.584492 -3.5414886 -20.411533 -11.453842c-3.8270416 -7.912369 -2.5139027 -17.477974 3.2877083 -23.949455l0 0c-7.5215225 -4.6358566 -11.359456 -13.834938 -9.51247 -22.800285c1.8469858 -8.96534 8.96036 -15.665367 17.630774 -16.606277z" fill-rule="nonzero"></path><path fill="#000000" fill-opacity="0.0" d="m22.18972 105.12206l0 0c3.549429 2.1876755 7.6498528 3.1800537 11.750721 2.8439026m5.371258 32.56019c1.7635231 -0.21611023 3.4921112 -0.6737366 5.1411858 -1.3610992m44.378483 14.899002c-1.2403488 -1.9478302 -2.2788315 -4.029251 -3.0977554 -6.2088013m59.116455 -2.5369568l0 0c0.6399231 -2.2187805 1.0545349 -4.5023956 1.2369385 -6.812729m39.807556 -16.773346c0.082962036 -10.818405 -5.7847595 -20.723846 -15.082825 -25.461647m35.558685 -27.144936c-1.5057831 3.683876 -3.8045502 6.951782 -6.716034 9.547508m-9.519913 -44.816006l0 0c0.25656128 1.4876328 0.37530518 2.9976196 0.35456848 4.509041m-39.71518 -15.552748l0 0c-1.4066162 1.7332649 -2.5654907 3.670164 -3.4405212 5.750389m-30.780235 -2.3569908l0 0c-0.7496109 1.5743103 -1.3093643 3.2402 -1.6663818 4.9592953m-37.5365 1.3564911l0 0c2.1886444 1.3423157 4.2134323 2.9579315 6.029892 4.811363m-52.90542 27.902275l0 0c0.2226944 1.7137756 0.5745621 3.4064255 1.052311 5.0621033" fill-rule="nonzero"></path><path stroke="#000000" stroke-width="2.0" stroke-linejoin="round" stroke-linecap="butt" d="m30.474699 65.23626l0 0c-1.6157665 -12.434353 3.6891155 -24.74361 13.663588 -31.704498c9.974472 -6.960888 22.869228 -7.3526173 33.212543 -1.0089645l0 0c3.6639252 -7.229849 10.369965 -12.221561 18.089684 -13.4652405c7.719719 -1.243679 15.546402 1.4067497 21.112625 7.149584l0 0c3.121193 -6.555046 9.249695 -10.9592 16.210808 -11.649638c6.9611206 -0.6904383 13.769669 2.4305525 18.009628 8.255485l0 0c5.6388855 -6.948333 14.610489 -9.87387 23.032745 -7.5107145c8.422272 2.3631544 14.782471 9.590558 16.328522 18.55487l0 0c6.9086 1.9733543 12.6633 6.989887 15.777298 13.753483c3.1139984 6.7635994 3.2818146 14.610767 0.46006775 21.514053l0 0c6.802948 9.271858 8.394333 21.626503 4.1802673 32.4534c-4.2140503 10.826889 -13.600433 18.499413 -24.656311 20.15432c-0.077926636 10.16143 -5.399658 19.485435 -13.91394 24.378136c-8.5142975 4.8927 -18.891632 4.590088 -27.132126 -0.79119873c-3.5100098 12.170059 -13.389511 21.12468 -25.370209 22.995117c-11.98069 1.8704529 -23.914795 -3.6785889 -30.64634 -14.249725c-8.251457 5.210541 -18.15252 6.7115326 -27.469711 4.164383c-9.317188 -2.5471497 -17.265667 -8.927902 -22.052422 -17.702866l0 0c-8.431955 1.0332794 -16.584492 -3.5414886 -20.411533 -11.453842c-3.8270416 -7.912369 -2.5139027 -17.477974 3.2877083 -23.949455l0 0c-7.5215225 -4.6358566 -11.359456 -13.834938 -9.51247 -22.800285c1.8469858 -8.96534 8.96036 -15.665367 17.630774 -16.606277z" fill-rule="nonzero"></path><path stroke="#000000" stroke-width="2.0" stroke-linejoin="round" stroke-linecap="butt" d="m22.18972 105.12206l0 0c3.549429 2.1876755 7.6498528 3.1800537 11.750721 2.8439026m5.371258 32.56019c1.7635231 -0.21611023 3.4921112 -0.6737366 5.1411858 -1.3610992m44.378483 14.899002c-1.2403488 -1.9478302 -2.2788315 -4.029251 -3.0977554 -6.2088013m59.116455 -2.5369568l0 0c0.6399231 -2.2187805 1.0545349 -4.5023956 1.2369385 -6.812729m39.807556 -16.773346c0.082962036 -10.818405 -5.7847595 -20.723846 -15.082825 -25.461647m35.558685 -27.144936c-1.5057831 3.683876 -3.8045502 6.951782 -6.716034 9.547508m-9.519913 -44.816006l0 0c0.25656128 1.4876328 0.37530518 2.9976196 0.35456848 4.509041m-39.71518 -15.552748l0 0c-1.4066162 1.7332649 -2.5654907 3.670164 -3.4405212 5.750389m-30.780235 -2.3569908l0 0c-0.7496109 1.5743103 -1.3093643 3.2402 -1.6663818 4.9592953m-37.5365 1.3564911l0 0c2.1886444 1.3423157 4.2134323 2.9579315 6.029892 4.811363m-52.90542 27.902275l0 0c0.2226944 1.7137756 0.5745621 3.4064255 1.052311 5.0621033" fill-rule="nonzero"></path><path fill="#ffffff" d="m62.808 96.78284l0 -1.90625q-1.515625 2.203125 -4.109375 2.203125q-1.140625 0 -2.140625 -0.4375q-1.0 -0.453125 -1.484375 -1.109375q-0.484375 -0.671875 -0.671875 -1.625q-0.140625 -0.65625 -0.140625 -2.0625l0 -8.03125l2.203125 0l0 7.1875q0 1.734375 0.140625 2.328125q0.203125 0.859375 0.875 1.359375q0.671875 0.5 1.65625 0.5q0.984375 0 1.84375 -0.5q0.875 -0.515625 1.234375 -1.390625q0.359375 -0.875 0.359375 -2.53125l0 -6.953125l2.203125 0l0 12.96875l-1.96875 0zm5.5863037 4.96875l0 -17.9375l2.015625 0l0 1.6875q0.703125 -0.984375 1.59375 -1.46875q0.890625 -0.5 2.15625 -0.5q1.65625 0 2.921875 0.859375q1.28125 0.84375 1.921875 2.40625q0.65625 1.546875 0.65625 3.40625q0 1.984375 -0.71875 3.578125q-0.71875 1.59375 -2.078125 2.453125q-1.359375 0.84375 -2.859375 0.84375q-1.09375 0 -1.96875 -0.46875q-0.875 -0.46875 -1.4375 -1.171875l0 6.3125l-2.203125 0zm2.0 -11.375q0 2.5 1.015625 3.703125q1.015625 1.1875 2.453125 1.1875q1.453125 0 2.5 -1.234375q1.046875 -1.234375 1.046875 -3.84375q0 -2.46875 -1.015625 -3.703125q-1.015625 -1.234375 -2.4375 -1.234375q-1.40625 0 -2.484375 1.3125q-1.078125 1.3125 -1.078125 3.8125zm11.211304 2.53125l2.171875 -0.34375q0.1875 1.3125 1.015625 2.015625q0.84375 0.6875 2.34375 0.6875q1.515625 0 2.25 -0.609375q0.734375 -0.625 0.734375 -1.453125q0 -0.75 -0.65625 -1.171875q-0.453125 -0.296875 -2.234375 -0.75q-2.421875 -0.609375 -3.359375 -1.046875q-0.9375 -0.453125 -1.421875 -1.234375q-0.46875 -0.78125 -0.46875 -1.734375q0 -0.875 0.390625 -1.609375q0.390625 -0.734375 1.078125 -1.234375q0.515625 -0.375 1.390625 -0.625q0.890625 -0.265625 1.90625 -0.265625q1.53125 0 2.671875 0.4375q1.15625 0.4375 1.703125 1.1875q0.5625 0.75 0.765625 2.0l-2.140625 0.296875q-0.15625 -1.0 -0.859375 -1.5625q-0.703125 -0.5625 -1.984375 -0.5625q-1.515625 0 -2.15625 0.5q-0.640625 0.5 -0.640625 1.171875q0 0.4375 0.265625 0.765625q0.265625 0.359375 0.84375 0.59375q0.328125 0.125 1.9375 0.5625q2.328125 0.625 3.25 1.015625q0.921875 0.390625 1.4375 1.15625q0.53125 0.75 0.53125 1.875q0 1.109375 -0.640625 2.078125q-0.640625 0.96875 -1.84375 1.5q-1.203125 0.53125 -2.734375 0.53125q-2.53125 0 -3.859375 -1.046875q-1.3125 -1.0625 -1.6875 -3.125zm18.351562 1.90625l0.3125 1.9375q-0.9375 0.203125 -1.65625 0.203125q-1.203125 0 -1.859375 -0.375q-0.65625 -0.390625 -0.9375 -1.0q-0.265625 -0.609375 -0.265625 -2.59375l0 -7.453125l-1.609375 0l0 -1.71875l1.609375 0l0 -3.203125l2.1875 -1.328125l0 4.53125l2.21875 0l0 1.71875l-2.21875 0l0 7.578125q0 0.9375 0.109375 1.203125q0.125 0.265625 0.390625 0.4375q0.265625 0.15625 0.75 0.15625q0.359375 0 0.96875 -0.09375zm2.208847 1.96875l0 -12.96875l1.96875 0l0 1.96875q0.765625 -1.375 1.40625 -1.8125q0.640625 -0.4375 1.40625 -0.4375q1.109375 0 2.265625 0.703125l-0.765625 2.03125q-0.796875 -0.46875 -1.609375 -0.46875q-0.71875 0 -1.296875 0.4375q-0.5625 0.421875 -0.8125 1.203125q-0.359375 1.171875 -0.359375 2.5625l0 6.78125l-2.203125 0zm17.325089 -4.171875l2.28125 0.28125q-0.546875 1.984375 -2.0 3.09375q-1.453125 1.09375 -3.703125 1.09375q-2.84375 0 -4.515625 -1.75q-1.65625 -1.75 -1.65625 -4.921875q0 -3.265625 1.671875 -5.0625q1.6875 -1.8125 4.375 -1.8125q2.609375 0 4.25 1.765625q1.640625 1.765625 1.640625 4.984375q0 0.1875 0 0.578125l-9.671875 0q0.125 2.140625 1.203125 3.28125q1.09375 1.125 2.71875 1.125q1.203125 0 2.046875 -0.625q0.859375 -0.640625 1.359375 -2.03125zm-7.203125 -3.5625l7.234375 0q-0.140625 -1.625 -0.828125 -2.453125q-1.046875 -1.265625 -2.71875 -1.265625q-1.515625 0 -2.546875 1.015625q-1.03125 1.015625 -1.140625 2.703125zm20.883179 6.140625q-1.21875 1.03125 -2.359375 1.46875q-1.125 0.421875 -2.421875 0.421875q-2.125 0 -3.28125 -1.046875q-1.140625 -1.046875 -1.140625 -2.671875q0 -0.953125 0.421875 -1.734375q0.4375 -0.78125 1.140625 -1.25q0.703125 -0.484375 1.578125 -0.734375q0.65625 -0.171875 1.953125 -0.328125q2.671875 -0.3125 3.921875 -0.765625q0.015625 -0.4375 0.015625 -0.5625q0 -1.34375 -0.625 -1.890625q-0.84375 -0.75 -2.5 -0.75q-1.546875 0 -2.296875 0.546875q-0.734375 0.53125 -1.078125 1.921875l-2.15625 -0.296875q0.296875 -1.375 0.96875 -2.21875q0.671875 -0.859375 1.9375 -1.3125q1.265625 -0.453125 2.9375 -0.453125q1.671875 0 2.703125 0.390625q1.03125 0.390625 1.515625 0.984375q0.5 0.578125 0.6875 1.484375q0.109375 0.5625 0.109375 2.03125l0 2.921875q0 3.0625 0.140625 3.875q0.140625 0.8125 0.5625 1.5625l-2.296875 0q-0.34375 -0.6875 -0.4375 -1.59375zm-0.1875 -4.90625q-1.1875 0.484375 -3.59375 0.828125q-1.34375 0.1875 -1.90625 0.4375q-0.5625 0.234375 -0.875 0.71875q-0.296875 0.46875 -0.296875 1.03125q0 0.890625 0.65625 1.484375q0.671875 0.578125 1.953125 0.578125q1.265625 0 2.25 -0.5625q1.0 -0.5625 1.46875 -1.515625q0.34375 -0.75 0.34375 -2.203125l0 -0.796875zm5.8050537 6.5l0 -12.96875l1.96875 0l0 1.828125q0.609375 -0.953125 1.625 -1.53125q1.015625 -0.578125 2.3125 -0.578125q1.4375 0 2.359375 0.59375q0.921875 0.59375 1.296875 1.671875q1.546875 -2.265625 4.0 -2.265625q1.9375 0 2.96875 1.0625q1.046875 1.0625 1.046875 3.28125l0 8.90625l-2.1875 0l0 -8.171875q0 -1.3125 -0.21875 -1.890625q-0.203125 -0.578125 -0.765625 -0.9375q-0.5625 -0.359375 -1.328125 -0.359375q-1.359375 0 -2.265625 0.921875q-0.90625 0.90625 -0.90625 2.90625l0 7.53125l-2.203125 0l0 -8.421875q0 -1.46875 -0.53125 -2.203125q-0.53125 -0.734375 -1.75 -0.734375q-0.9375 0 -1.734375 0.5q-0.78125 0.484375 -1.140625 1.421875q-0.34375 0.9375 -0.34375 2.71875l0 6.71875l-2.203125 0z" fill-rule="nonzero"></path><path fill="#000000" fill-opacity="0.0" d="m149.82677 160.92651l102.96063 45.007874" fill-rule="nonzero"></path><path stroke="#cc0000" stroke-width="4.0" stroke-linejoin="round" stroke-linecap="butt" d="m149.82677 160.92651l80.969925 35.394928" fill-rule="evenodd"></path><path fill="#cc0000" stroke="#cc0000" stroke-width="4.0" stroke-linecap="butt" d="m228.15036 202.37523l19.278992 1.2169495l-13.986328 -13.324539z" fill-rule="evenodd"></path><path fill="#000000" fill-opacity="0.0" d="m181.27296 152.91077l341.57483 58.582672" fill-rule="nonzero"></path><path stroke="#cc0000" stroke-width="4.0" stroke-linejoin="round" stroke-linecap="butt" d="m181.27296 152.91077l317.92017 54.525726" fill-rule="evenodd"></path><path fill="#cc0000" stroke="#cc0000" stroke-width="4.0" stroke-linecap="butt" d="m498.07632 213.94835l19.007965 -3.44339l-16.774323 -9.580322z" fill-rule="evenodd"></path><path fill="#000000" fill-opacity="0.0" d="m654.6037 65.89239c-9.735352 45.42296 -46.7265 84.38105 -85.380615 110.14698c-29.20465 19.467178 -65.12155 29.932358 -89.94223 54.74803c-41.28824 41.279922 -44.317596 111.069595 -44.317596 169.45406" fill-rule="evenodd"></path><path stroke="#000000" stroke-width="2.0" stroke-linejoin="round" stroke-linecap="butt" stroke-dasharray="2.0,6.0" d="m654.6037 65.89239c-9.735352 45.42296 -46.7265 84.38105 -85.380615 110.14698c-29.20465 19.467178 -65.12155 29.932358 -89.94223 54.74803c-41.28824 41.279922 -44.317596 111.069595 -44.317596 169.45406" fill-rule="evenodd"></path><path fill="#000000" fill-opacity="0.0" d="m412.43896 293.43497l27.46457 -69.00786l26.64566 10.614166l-27.46457 69.00789z" fill-rule="nonzero"></path><path fill="#000000" d="m437.0211 282.34476l0.380188 -1.6313782q0.490448 0.07763672 0.83825684 -0.12020874q0.35357666 -0.21234131 0.5673523 -0.7494812q0.23690796 -0.59521484 0.13470459 -0.97232056q-0.07876587 -0.2668457 -0.325531 -0.36514282q-0.17419434 -0.069366455 -0.3307495 -0.014007568q-0.16235352 0.069885254 -0.40545654 0.42715454q-1.1459961 1.6963196 -1.6763 2.0569458q-0.75057983 0.4914856 -1.5779724 0.16189575q-0.7548218 -0.30065918 -1.0317688 -1.0837402q-0.27114868 -0.7976074 0.22573853 -2.046112q0.4737854 -1.1904297 1.0968323 -1.6150208q0.6085205 -0.4303589 1.4499817 -0.34744263l-0.3164978 1.5558472q-0.36853027 -0.045898438 -0.646698 0.14602661q-0.2927246 0.18615723 -0.48339844 0.66522217q-0.23687744 0.59521484 -0.16668701 0.92593384q0.046783447 0.22045898 0.23550415 0.29562378q0.17416382 0.06939697 0.3480835 -0.029510498q0.2260437 -0.14544678 0.9871826 -1.2550354q0.76690674 -1.124115 1.3640137 -1.4413147q0.59710693 -0.3171692 1.3229065 -0.028045654q0.79837036 0.31802368 1.1132202 1.2171326q0.3060913 0.8787842 -0.2138977 2.1853638q-0.46801758 1.1759033 -1.2243652 1.6819458q-0.75057983 0.4914856 -1.6646423 0.3796692zm3.8276062 -10.166626l0.86795044 -1.4202576q0.7263794 0.6257019 0.9076233 1.4379578q0.1812439 0.81222534 -0.19433594 1.7558594q-0.6008911 1.5098267 -1.876831 1.8424988q-1.0149841 0.26846313 -2.2197876 -0.2114563q-1.4370422 -0.57244873 -1.9494629 -1.6511841q-0.5124512 -1.0787048 -0.055999756 -2.225586q0.5142212 -1.2920532 1.6653137 -1.6912842q1.1423645 -0.41955566 2.8814392 0.32366943l-1.5253601 3.832611q0.69381714 0.24273682 1.2098694 0.044647217q0.51608276 -0.1980896 0.7298584 -0.7352295q0.13867188 -0.3484192 0.048187256 -0.67037964q-0.10498047 -0.3277588 -0.48846436 -0.63186646zm-1.5039978 -0.7000427q-0.67349243 -0.25146484 -1.1547546 -0.05633545q-0.47549438 0.18060303 -0.6661682 0.6596985q-0.19644165 0.4935913 0.033569336 0.9720459q0.25027466 0.46972656 0.8744507 0.7183533l0.91290283 -2.2937622zm5.0642395 -2.8791199l-0.60665894 1.5243225l-5.777252 -2.3013306l0.56622314 -1.4227295l0.8128662 0.32382202q-0.43618774 -0.5942383 -0.494812 -0.9539795q-0.073150635 -0.36550903 0.07128906 -0.7284546q0.20800781 -0.5226135 0.6947632 -0.90057373l1.1302795 1.0052795q-0.402771 0.29367065 -0.5298767 0.6130371q-0.13290405 0.33392334 -0.030853271 0.62683105q0.0874939 0.2871704 0.5 0.60284424q0.39801025 0.309906 1.8786011 0.89971924l1.7854309 0.71121216zm1.7788391 -4.469574l-6.7074585 0.035980225l0.6413269 -1.6114502l3.3800354 0.084991455l1.1141663 0.07382202q-0.33117676 -0.2664795 -0.4357605 -0.34179688q-0.21209717 -0.18539429 -0.42419434 -0.37078857l-2.5133362 -2.2626038l0.62976074 -1.582428l4.86438 4.5951233l-0.5489197 1.3791504zm1.3234863 -8.691742l0.86795044 -1.4202576q0.7263794 0.62571716 0.9076233 1.4379578q0.1812439 0.81222534 -0.19430542 1.7558899q-0.60092163 1.5097961 -1.8768616 1.8424683q-1.0149841 0.26846313 -2.2197876 -0.2114563q-1.4370422 -0.57244873 -1.9494629 -1.6511536q-0.5124512 -1.0787354 -0.055999756 -2.2256012q0.5142212 -1.2920532 1.6653137 -1.6912994q1.1423645 -0.4195404 2.8814392 0.32366943l-1.5253601 3.832611q0.69381714 0.24273682 1.2098694 0.044647217q0.51608276 -0.19805908 0.7298584 -0.7352295q0.13867188 -0.3484192 0.048187256 -0.67037964q-0.10498047 -0.32774353 -0.48846436 -0.63186646zm-1.5039978 -0.70002747q-0.67349243 -0.25146484 -1.1547546 -0.05633545q-0.47549438 0.18060303 -0.6661682 0.6596832q-0.19644165 0.4935913 0.033569336 0.9720459q0.25027466 0.46972656 0.8744507 0.7183838l0.91290283 -2.2937775zm5.0642395 -2.8791351l-0.60665894 1.5243378l-5.777252 -2.3013458l0.56622314 -1.4227142l0.8128662 0.32380676q-0.43618774 -0.594223 -0.494812 -0.95396423q-0.073150635 -0.36550903 0.07128906 -0.7284546q0.20800781 -0.5226288 0.6947632 -0.90057373l1.1302795 1.0052643q-0.402771 0.29367065 -0.5298767 0.61305237q-0.13290405 0.33390808 -0.030853271 0.62683105q0.087524414 0.28715515 0.5 0.60284424q0.39801025 0.309906 1.8786011 0.899704l1.7854309 0.71121216z" fill-rule="nonzero"></path><path fill="#000000" fill-opacity="0.0" d="m431.04788 313.34573l27.46457 -69.00787l26.64566 10.6141815l-27.46457 69.00786z" fill-rule="nonzero"></path><path fill="#000000" d="m457.50616 302.3585l-7.9836426 -3.1802368l0.6124573 -1.5388489l7.9836426 3.1802368l-0.6124573 1.5388489zm-2.331543 -5.846222l-0.80145264 1.2953796q-0.7494812 -0.5676575 -0.91604614 -1.289978q-0.17532349 -0.7425842 0.2753296 -1.8749695q0.40444946 -1.0162048 0.84765625 -1.411499q0.43447876 -0.41558838 0.89279175 -0.46850586q0.44378662 -0.058685303 1.4453735 0.3403015l1.7796326 0.725708q0.76934814 0.30648804 1.1611328 0.3784485q0.3772583 0.06619263 0.87908936 0.03060913l-0.6008911 1.5098267q-0.18276978 -0.0055236816 -0.50775146 -0.034057617q-0.1625061 -0.014282227 -0.21182251 -0.017120361q0.2359314 0.5480957 0.24551392 1.0733032q0.015380859 0.51071167 -0.18685913 1.0188293q-0.35821533 0.90005493 -1.045227 1.2318726q-0.69577026 0.31152344 -1.4360657 0.01663208q-0.49353027 -0.19659424 -0.7785034 -0.57922363q-0.2791748 -0.39712524 -0.31484985 -0.89907837q-0.0501709 -0.50775146 0.12243652 -1.3640442q0.2185669 -1.1407166 0.21194458 -1.6311035l-0.14517212 -0.05783081q-0.4499817 -0.17926025 -0.7253418 -0.03665161q-0.27539062 0.14257812 -0.5180359 0.75231934q-0.1618042 0.40649414 -0.094573975 0.70236206q0.073028564 0.28137207 0.4216919 0.58847046zm2.0630188 -1.5497131q-0.0284729 0.32504272 -0.13754272 1.021637q-0.123565674 0.6908264 -0.07382202 0.94610596q0.10217285 0.3770752 0.4215088 0.504303q0.31936646 0.12719727 0.65856934 -0.0067749023q0.33047485 -0.15429688 0.47491455 -0.5172119q0.16757202 -0.4210205 0.041992188 -0.9083252q-0.093444824 -0.35681152 -0.36361694 -0.56533813q-0.16558838 -0.13323975 -0.7171936 -0.3529663l-0.30480957 -0.12142944zm-1.8253479 -4.160309l0.56622314 -1.422699l0.84191895 0.33535767q-0.31991577 -0.46380615 -0.3963318 -1.0324402q-0.085113525 -0.58895874 0.1459961 -1.1696472q0.39868164 -1.001709 1.4598694 -1.3862915q1.0669556 -0.3991394 2.489502 0.1675415q1.4370422 0.57244873 1.9667969 1.607605q0.5152588 1.0293884 0.11657715 2.0310974q-0.19064331 0.47906494 -0.5353699 0.7958679q-0.34469604 0.31680298 -0.9767456 0.5527649l2.917633 1.162262l-0.61242676 1.5388489l-7.9836426 -3.1802673zm3.387909 -0.3996277q0.9725342 0.38742065 1.5930481 0.18048096q0.6205139 -0.2069397 0.8400574 -0.75860596q0.21377563 -0.5371399 -0.06851196 -1.0532532q-0.29678345 -0.5218811 -1.2693481 -0.90930176q-0.8999634 -0.35849 -1.4798889 -0.16900635q-0.5944214 0.1836853 -0.80822754 0.7208252q-0.22531128 0.5661621 0.059936523 1.117096q0.29101562 0.5364075 1.1329346 0.87176514zm0.39727783 -9.1111145l1.2193298 0.48568726l-0.41601562 1.0452576l2.3225098 0.9251709q0.7112732 0.2833252 0.83895874 0.30056763q0.12768555 0.017211914 0.2552185 -0.049713135q0.11880493 -0.08721924 0.1765747 -0.23239136q0.08666992 -0.21777344 0.08300781 -0.67333984l1.242279 0.34347534q0.024261475 0.6151428 -0.24728394 1.2974548q-0.1618042 0.40649414 -0.4253235 0.6883545q-0.27804565 0.27609253 -0.5593262 0.34906006q-0.29003906 0.052642822 -0.68182373 -0.019317627q-0.29312134 -0.0663147 -1.1060181 -0.39013672l-2.5112 -1.0003052l-0.27734375 0.6968384l-1.2193298 -0.48571777l0.27734375 -0.6968384l-1.146759 -0.45681763l-0.2875061 -1.8973389l2.0467224 0.8153076l0.4159851 -1.0452576zm3.0832214 0.40823364q-0.7548218 -0.30065918 -1.3158875 -0.9614563q-0.5755615 -0.66656494 -0.6668701 -1.4934387q-0.10586548 -0.8326721 0.23501587 -1.689209q0.52001953 -1.3065796 1.7115479 -1.8074341q1.1770325 -0.5066223 2.4834595 0.013763428q1.3063965 0.52041626 1.8364563 1.723877q0.52130127 1.1831665 0.012878418 2.4606934q-0.31777954 0.7984619 -0.969574 1.3797913q-0.6460266 0.566803 -1.4784851 0.67248535q-0.84695435 0.09991455 -1.8485413 -0.29907227zm0.7110901 -1.5332031q0.8564148 0.341156 1.4826965 0.11972046q0.6117859 -0.2272644 0.84866333 -0.82247925q0.24267578 -0.6097107 -0.05130005 -1.1809387q-0.30273438 -0.5915222 -1.1736755 -0.93847656q-0.84191895 -0.33535767 -1.4536743 -0.10812378q-0.6205139 0.2069397 -0.8631897 0.8166809q-0.23687744 0.59521484 0.06585693 1.1867371q0.288208 0.5857544 1.1446228 0.9268799zm-0.68078613 -6.6981506l0.56625366 -1.422699l0.8418884 0.33535767q-0.31991577 -0.46380615 -0.39630127 -1.0324707q-0.085113525 -0.5889282 0.1459961 -1.1696167q0.39865112 -1.001709 1.4598389 -1.386322q1.0669861 -0.3991089 2.489502 0.16757202q1.4370728 0.5724182 1.9668274 1.607605q0.5152588 1.0293579 0.11657715 2.031067q-0.19067383 0.47909546 -0.5353699 0.79589844q-0.34469604 0.31680298 -0.9767761 0.5527649l2.9176636 1.1622314l-0.61242676 1.5388489l-7.983673 -3.1802368zm3.3879395 -0.3996277q0.9725342 0.38742065 1.5930481 0.18048096q0.6205139 -0.2069397 0.8400574 -0.75860596q0.21377563 -0.5371399 -0.06851196 -1.0532532q-0.29678345 -0.5218811 -1.2693481 -0.90930176q-0.8999634 -0.35849 -1.4798889 -0.16903687q-0.5944519 0.1836853 -0.80822754 0.7208557q-0.22531128 0.5661621 0.059936523 1.117096q0.29101562 0.5364075 1.1329346 0.87176514z" fill-rule="nonzero"></path></g></svg>

