<?xml version="1.0" encoding="UTF-8" standalone="no"?>
<!DOCTYPE svg PUBLIC "-//W3C//DTD SVG 1.1//EN"
 "http://www.w3.org/Graphics/SVG/1.1/DTD/svg11.dtd">
<!-- Generated by graphviz version 5.0.0 (20220707.1540)
 -->
<!-- Title: foo.rb Pages: 1 -->
<svg width="2126pt" height="1220pt"
 viewBox="0.00 0.00 2125.59 1220.09" xmlns="http://www.w3.org/2000/svg" xmlns:xlink="http://www.w3.org/1999/xlink">
<g id="graph0" class="graph" transform="scale(1 1) rotate(0) translate(4 1216.09)">
<title>foo.rb</title>
<polygon fill="white" stroke="transparent" points="-4,4 -4,-1216.09 2121.59,-1216.09 2121.59,4 -4,4"/>
<g id="clust2" class="cluster">
<title>cluster_::&lt;Class:&lt;root&gt;&gt;#&lt;static&#45;init&gt;</title>
<polygon fill="none" stroke="blue" points="1295.59,-908 1295.59,-1204.09 2109.59,-1204.09 2109.59,-908 1295.59,-908"/>
<text text-anchor="middle" x="1702.59" y="-1188.89" font-family="Times,serif" font-size="14.00">::&lt;Class:&lt;root&gt;&gt;#&lt;static&#45;init&gt;</text>
</g>
<g id="clust1" class="cluster">
<title>cluster_::Object#example</title>
<polygon fill="none" stroke="blue" points="37.59,-8 37.59,-1204.09 1287.59,-1204.09 1287.59,-8 37.59,-8"/>
<text text-anchor="middle" x="662.59" y="-1188.89" font-family="Times,serif" font-size="14.00">::Object#example</text>
</g>
<!-- bb::Object#example_0 -->
<g id="node1" class="node">
<title>bb::Object#example_0</title>
<polygon fill="none" stroke="black" points="56.25,-1078.11 353.59,-1027.96 650.94,-1078.11 650.66,-1159.27 56.53,-1159.27 56.25,-1078.11"/>
<text text-anchor="start" x="117.85" y="-1126.84" font-family="Times,serif" font-size="14.00">block[id=0, rubyRegionId=0]()</text>
<text text-anchor="start" x="117.85" y="-1111.84" font-family="Times,serif" font-size="14.00">&lt;self&gt;: Object = cast(&lt;self&gt;: NilClass, Object);</text>
<text text-anchor="start" x="117.85" y="-1096.84" font-family="Times,serif" font-size="14.00">&lt;magic&gt;$12: T.class_of(&lt;Magic&gt;) = alias &lt;C &lt;Magic&gt;&gt;</text>
<text text-anchor="start" x="117.85" y="-1081.84" font-family="Times,serif" font-size="14.00">&lt;exceptionValue&gt;$3: T.untyped = &lt;get&#45;current&#45;exception&gt;</text>
<text text-anchor="start" x="117.85" y="-1066.84" font-family="Times,serif" font-size="14.00">&lt;exceptionValue&gt;$3: T.untyped</text>
</g>
<!-- bb::Object#example_3 -->
<g id="node2" class="node">
<title>bb::Object#example_3</title>
<polygon fill="none" stroke="black" points="1131.09,-612 160.09,-612 160.09,-544 1131.09,-544 1131.09,-612"/>
<text text-anchor="start" x="168.09" y="-596.8" font-family="Times,serif" font-size="14.00">block[id=3, rubyRegionId=2](&lt;self&gt;: Object, &lt;returnMethodTemp&gt;$2: NilClass, &lt;exceptionValue&gt;$3: T.untyped, loop_count: NilClass, &lt;magic&gt;$12: T.class_of(&lt;Magic&gt;))</text>
<text text-anchor="start" x="168.09" y="-581.8" font-family="Times,serif" font-size="14.00">&lt;cfgAlias&gt;$15: T.class_of(Interrupt) = alias &lt;C Interrupt&gt;</text>
<text text-anchor="start" x="168.09" y="-566.8" font-family="Times,serif" font-size="14.00">&lt;isaCheckTemp&gt;$16: T.untyped = &lt;exceptionValue&gt;$3: T.untyped.is_a?(&lt;cfgAlias&gt;$15: T.class_of(Interrupt))</text>
<text text-anchor="start" x="168.09" y="-551.8" font-family="Times,serif" font-size="14.00">&lt;isaCheckTemp&gt;$16: T.untyped</text>
</g>
<!-- bb::Object#example_0&#45;&gt;bb::Object#example_3 -->
<g id="edge1" class="edge">
<title>bb::Object#example_0&#45;&gt;bb::Object#example_3</title>
<path fill="none" stroke="black" stroke-width="2" d="M208.56,-1052.34C175.36,-1036.81 142.09,-1016.94 115.59,-992 2.64,-885.68 -46.51,-763.89 56.59,-648 68.84,-634.23 120.32,-622.77 188.12,-613.39"/>
<polygon fill="black" stroke="black" stroke-width="2" points="188.8,-616.83 198.24,-612.03 187.86,-609.9 188.8,-616.83"/>
</g>
<!-- bb::Object#example_4 -->
<g id="node3" class="node">
<title>bb::Object#example_4</title>
<polygon fill="none" stroke="black" points="592.59,-980.5 124.59,-980.5 124.59,-927.5 592.59,-927.5 592.59,-980.5"/>
<text text-anchor="start" x="132.59" y="-965.3" font-family="Times,serif" font-size="14.00">block[id=4, rubyRegionId=1](&lt;self&gt;: Object, &lt;magic&gt;$12: T.class_of(&lt;Magic&gt;))</text>
<text text-anchor="start" x="132.59" y="-950.3" font-family="Times,serif" font-size="14.00">loop_count: Integer(0) = 0</text>
<text text-anchor="start" x="132.59" y="-935.3" font-family="Times,serif" font-size="14.00">&lt;unconditional&gt;</text>
</g>
<!-- bb::Object#example_0&#45;&gt;bb::Object#example_4 -->
<g id="edge2" class="edge">
<title>bb::Object#example_0&#45;&gt;bb::Object#example_4</title>
<polygon fill="black" stroke="transparent" points="356.56,-1028.14 356.61,-1026.2 356.65,-1024.25 356.69,-1022.32 356.73,-1020.38 356.77,-1018.45 356.81,-1016.52 356.85,-1014.61 356.89,-1012.69 356.93,-1010.79 356.97,-1008.9 357.01,-1007.03 357.05,-1005.16 357.09,-1003.31 357.13,-1001.47 357.17,-999.66 357.21,-997.86 357.24,-996.07 357.28,-994.31 357.32,-992.58 357.35,-990.86 357.35,-990.86 357.27,-992.57 357.19,-994.31 357.1,-996.07 357.02,-997.85 356.93,-999.65 356.84,-1001.46 356.76,-1003.3 356.67,-1005.15 356.58,-1007.01 356.49,-1008.89 356.4,-1010.78 356.31,-1012.67 356.21,-1014.58 356.12,-1016.5 356.03,-1018.42 355.94,-1020.35 355.84,-1022.29 355.75,-1024.22 355.66,-1026.16 355.57,-1028.1 356.56,-1028.14"/>
<polygon fill="black" stroke="black" points="360.86,-990.64 357.71,-980.53 353.87,-990.4 360.86,-990.64"/>
</g>
<!-- bb::Object#example_11 -->
<g id="node5" class="node">
<title>bb::Object#example_11</title>
<polygon fill="none" stroke="black" points="841.09,-508 46.09,-508 46.09,-440 841.09,-440 841.09,-508"/>
<text text-anchor="start" x="54.09" y="-492.8" font-family="Times,serif" font-size="14.00">block[id=11, rubyRegionId=2](&lt;self&gt;: Object, &lt;returnMethodTemp&gt;$2: NilClass, loop_count: NilClass, &lt;magic&gt;$12: T.class_of(&lt;Magic&gt;))</text>
<text text-anchor="start" x="54.09" y="-477.8" font-family="Times,serif" font-size="14.00">&lt;exceptionValue&gt;$3: NilClass = nil</text>
<text text-anchor="start" x="54.09" y="-462.8" font-family="Times,serif" font-size="14.00">&lt;keepForCfgTemp&gt;$13: Sorbet::Private::Static::Void = &lt;magic&gt;$12: T.class_of(&lt;Magic&gt;).&lt;keep&#45;for&#45;cfg&gt;(&lt;exceptionValue&gt;$3: NilClass)</text>
<text text-anchor="start" x="54.09" y="-447.8" font-family="Times,serif" font-size="14.00">loop_count: NilClass</text>
</g>
<!-- bb::Object#example_3&#45;&gt;bb::Object#example_11 -->
<g id="edge4" class="edge">
<title>bb::Object#example_3&#45;&gt;bb::Object#example_11</title>
<path fill="none" stroke="black" stroke-width="2" d="M580.01,-543.88C560.33,-533.95 538.6,-522.97 518.37,-512.76"/>
<polygon fill="black" stroke="black" stroke-width="2" points="519.7,-509.51 509.19,-508.12 516.54,-515.76 519.7,-509.51"/>
</g>
<!-- bb::Object#example_12 -->
<g id="node6" class="node">
<title>bb::Object#example_12</title>
<polygon fill="none" stroke="black" points="1244.09,-500.5 859.09,-500.5 859.09,-447.5 1244.09,-447.5 1244.09,-500.5"/>
<text text-anchor="start" x="867.09" y="-485.3" font-family="Times,serif" font-size="14.00">block[id=12, rubyRegionId=2](&lt;returnMethodTemp&gt;$2: NilClass)</text>
<text text-anchor="start" x="867.09" y="-470.3" font-family="Times,serif" font-size="14.00">&lt;gotoDeadTemp&gt;$25: TrueClass = true</text>
<text text-anchor="start" x="867.09" y="-455.3" font-family="Times,serif" font-size="14.00">&lt;unconditional&gt;</text>
</g>
<!-- bb::Object#example_3&#45;&gt;bb::Object#example_12 -->
<g id="edge5" class="edge">
<title>bb::Object#example_3&#45;&gt;bb::Object#example_12</title>
<polygon fill="black" stroke="transparent" points="777.25,-544.44 785.18,-542.42 793.21,-540.38 801.32,-538.32 809.5,-536.23 817.74,-534.14 826.03,-532.03 834.35,-529.91 842.7,-527.79 851.05,-525.66 859.4,-523.54 867.74,-521.42 876.04,-519.31 884.3,-517.2 892.51,-515.12 900.66,-513.04 908.72,-510.99 916.69,-508.97 924.56,-506.96 932.31,-504.99 939.93,-503.05 939.93,-503.05 932.3,-504.95 924.54,-506.87 916.66,-508.83 908.67,-510.81 900.6,-512.81 892.44,-514.83 884.22,-516.87 875.94,-518.93 867.63,-520.99 859.28,-523.06 850.92,-525.13 842.55,-527.21 834.2,-529.28 825.86,-531.35 817.56,-533.41 809.31,-535.46 801.11,-537.49 792.99,-539.51 784.95,-541.5 777.01,-543.47 777.25,-544.44"/>
<polygon fill="black" stroke="black" points="941.03,-506.39 949.88,-500.55 939.33,-499.6 941.03,-506.39"/>
</g>
<!-- bb::Object#example_5 -->
<g id="node7" class="node">
<title>bb::Object#example_5</title>
<polygon fill="none" stroke="black" points="663.59,-880 65.59,-880 65.59,-812 663.59,-812 663.59,-880"/>
<text text-anchor="start" x="73.59" y="-864.8" font-family="Times,serif" font-size="14.00">block[id=5, rubyRegionId=1](&lt;self&gt;: Object, loop_count: Integer(0), &lt;magic&gt;$12: T.class_of(&lt;Magic&gt;))</text>
<text text-anchor="start" x="73.59" y="-849.8" font-family="Times,serif" font-size="14.00">outerLoops: 1</text>
<text text-anchor="start" x="73.59" y="-834.8" font-family="Times,serif" font-size="14.00">&lt;whileTemp&gt;$5: TrueClass = true</text>
<text text-anchor="start" x="73.59" y="-819.8" font-family="Times,serif" font-size="14.00">&lt;whileTemp&gt;$5: TrueClass</text>
</g>
<!-- bb::Object#example_4&#45;&gt;bb::Object#example_5 -->
<g id="edge6" class="edge">
<title>bb::Object#example_4&#45;&gt;bb::Object#example_5</title>
<path fill="none" stroke="black" stroke-width="2" d="M360.05,-927.34C360.68,-916.23 361.43,-902.92 362.14,-890.36"/>
<polygon fill="black" stroke="black" stroke-width="2" points="365.65,-890.23 362.72,-880.05 358.66,-889.83 365.65,-890.23"/>
</g>
<!-- bb::Object#example_1 -->
<g id="node4" class="node">
<title>bb::Object#example_1</title>
<polygon fill="none" stroke="black" points="924.41,-92 614.5,-92 534.78,-16 844.69,-16 924.41,-92"/>
<text text-anchor="start" x="574.78" y="-57.8" font-family="Times,serif" font-size="14.00">block[id=1, rubyRegionId=0]()</text>
<text text-anchor="start" x="574.78" y="-42.8" font-family="Times,serif" font-size="14.00">&lt;unconditional&gt;</text>
</g>
<!-- bb::Object#example_1&#45;&gt;bb::Object#example_1 -->
<g id="edge3" class="edge">
<title>bb::Object#example_1&#45;&gt;bb::Object#example_1</title>
<path fill="none" stroke="black" stroke-width="2" d="M902.52,-70.73C926.49,-67.98 942.5,-62.4 942.5,-54 942.5,-42.73 913.64,-36.54 875.44,-35.43"/>
<polygon fill="black" stroke="black" stroke-width="2" points="875.05,-31.92 864.99,-35.26 874.93,-38.92 875.05,-31.92"/>
</g>
<!-- bb::Object#example_10 -->
<g id="node11" class="node">
<title>bb::Object#example_10</title>
<polygon fill="none" stroke="black" points="1045.59,-255 413.59,-255 413.59,-217 1045.59,-217 1045.59,-255"/>
<text text-anchor="start" x="421.59" y="-239.8" font-family="Times,serif" font-size="14.00">block[id=10, rubyRegionId=3](&lt;returnMethodTemp&gt;$2: NilClass, &lt;gotoDeadTemp&gt;$25: T.nilable(TrueClass))</text>
<text text-anchor="start" x="421.59" y="-224.8" font-family="Times,serif" font-size="14.00">&lt;gotoDeadTemp&gt;$25: T.nilable(TrueClass)</text>
</g>
<!-- bb::Object#example_11&#45;&gt;bb::Object#example_10 -->
<g id="edge16" class="edge">
<title>bb::Object#example_11&#45;&gt;bb::Object#example_10</title>
<polygon fill="black" stroke="transparent" points="320.23,-439.49 317.91,-438.1 315.62,-436.67 313.36,-435.2 311.14,-433.69 308.94,-432.15 306.77,-430.56 304.64,-428.93 302.55,-427.26 300.5,-425.54 298.49,-423.79 296.51,-421.99 294.59,-420.15 292.7,-418.26 290.87,-416.33 289.08,-414.35 287.35,-412.33 285.66,-410.26 284.04,-408.14 282.46,-405.98 280.95,-403.77 276.95,-397.56 273.3,-391.48 270.01,-385.5 267.09,-379.62 264.55,-373.82 262.41,-368.11 260.67,-362.47 259.36,-356.89 258.47,-351.36 258.03,-345.88 258.04,-340.42 258.53,-334.99 259.49,-329.57 260.94,-324.16 262.91,-318.73 265.39,-313.29 268.41,-307.82 271.97,-302.32 276.09,-296.77 280.77,-291.17 283.17,-288.98 286.42,-286.84 290.51,-284.73 295.39,-282.67 301.03,-280.66 307.38,-278.69 314.41,-276.77 322.08,-274.89 330.35,-273.06 339.19,-271.28 348.55,-269.55 358.41,-267.86 368.72,-266.22 379.45,-264.62 390.56,-263.07 402,-261.57 413.76,-260.11 425.78,-258.7 438.03,-257.33 450.48,-256.01 450.48,-256.01 438.03,-257.3 425.77,-258.63 413.75,-260.01 401.99,-261.43 390.53,-262.9 379.42,-264.42 368.69,-265.99 358.37,-267.6 348.5,-269.26 339.13,-270.97 330.28,-272.73 321.99,-274.53 314.31,-276.39 307.26,-278.3 300.89,-280.25 295.23,-282.26 290.32,-284.32 286.18,-286.43 282.87,-288.6 280.42,-290.83 275.68,-296.45 271.53,-302.01 267.93,-307.54 264.88,-313.03 262.36,-318.51 260.37,-323.97 258.88,-329.44 257.89,-334.91 257.39,-340.39 257.36,-345.9 257.79,-351.44 258.67,-357.03 259.98,-362.66 261.72,-368.35 263.86,-374.11 266.39,-379.94 269.31,-385.86 272.6,-391.88 276.25,-398 280.24,-404.23 281.76,-406.47 283.34,-408.66 284.98,-410.8 286.67,-412.89 288.42,-414.93 290.21,-416.93 292.06,-418.89 293.95,-420.79 295.89,-422.66 297.87,-424.48 299.89,-426.25 301.96,-427.98 304.06,-429.67 306.2,-431.32 308.38,-432.93 310.58,-434.49 312.82,-436.02 315.09,-437.5 317.39,-438.94 319.71,-440.35 320.23,-439.49"/>
<polygon fill="black" stroke="black" points="450.84,-259.49 460.44,-255.01 450.15,-252.53 450.84,-259.49"/>
</g>
<!-- bb::Object#example_13 -->
<g id="node13" class="node">
<title>bb::Object#example_13</title>
<polygon fill="none" stroke="red" points="863.59,-404 289.59,-404 289.59,-291 863.59,-291 863.59,-404"/>
<text text-anchor="start" x="297.59" y="-388.8" font-family="Times,serif" font-size="14.00">block[id=13, rubyRegionId=2](&lt;self&gt;: Object, loop_count: NilClass)</text>
<text text-anchor="start" x="297.59" y="-373.8" font-family="Times,serif" font-size="14.00">&lt;cfgAlias&gt;$21 = alias &lt;C &lt;Magic&gt;&gt;</text>
<text text-anchor="start" x="297.59" y="-358.8" font-family="Times,serif" font-size="14.00">&lt;statTemp&gt;$22 = &quot;Looped &quot;</text>
<text text-anchor="start" x="297.59" y="-343.8" font-family="Times,serif" font-size="14.00">&lt;statTemp&gt;$24 = &quot; times&quot;</text>
<text text-anchor="start" x="297.59" y="-328.8" font-family="Times,serif" font-size="14.00">&lt;statTemp&gt;$19 = &lt;cfgAlias&gt;$21.&lt;string&#45;interpolate&gt;(&lt;statTemp&gt;$22, loop_count, &lt;statTemp&gt;$24)</text>
<text text-anchor="start" x="297.59" y="-313.8" font-family="Times,serif" font-size="14.00">&lt;returnMethodTemp&gt;$2 = &lt;self&gt;.puts(&lt;statTemp&gt;$19)</text>
<text text-anchor="start" x="297.59" y="-298.8" font-family="Times,serif" font-size="14.00">&lt;unconditional&gt;</text>
</g>
<!-- bb::Object#example_11&#45;&gt;bb::Object#example_13 -->
<g id="edge15" class="edge">
<title>bb::Object#example_11&#45;&gt;bb::Object#example_13</title>
<path fill="none" stroke="black" stroke-width="2" d="M478.89,-439.96C488.45,-431.01 499.13,-421.01 509.83,-411"/>
<polygon fill="black" stroke="black" stroke-width="2" points="512.31,-413.47 517.21,-404.09 507.52,-408.36 512.31,-413.47"/>
</g>
<!-- bb::Object#example_12&#45;&gt;bb::Object#example_10 -->
<g id="edge17" class="edge">
<title>bb::Object#example_12&#45;&gt;bb::Object#example_10</title>
<path fill="none" stroke="black" stroke-width="2" d="M951.86,-447.36C929.43,-437.24 907.79,-423.25 892.59,-404 860.99,-363.97 905.16,-330.26 872.59,-291 861.02,-277.04 845.43,-266.69 828.8,-259.01"/>
<polygon fill="black" stroke="black" stroke-width="2" points="830.04,-255.73 819.47,-255.01 827.28,-262.16 830.04,-255.73"/>
</g>
<!-- bb::Object#example_8 -->
<g id="node8" class="node">
<title>bb::Object#example_8</title>
<polygon fill="none" stroke="black" points="663.59,-776 65.59,-776 65.59,-648 663.59,-648 663.59,-776"/>
<text text-anchor="start" x="73.59" y="-760.8" font-family="Times,serif" font-size="14.00">block[id=8, rubyRegionId=1](&lt;self&gt;: Object, loop_count: Integer(0), &lt;magic&gt;$12: T.class_of(&lt;Magic&gt;))</text>
<text text-anchor="start" x="73.59" y="-745.8" font-family="Times,serif" font-size="14.00">outerLoops: 1</text>
<text text-anchor="start" x="73.59" y="-730.8" font-family="Times,serif" font-size="14.00">&lt;statTemp&gt;$9: Integer(1) = 1</text>
<text text-anchor="start" x="73.59" y="-715.8" font-family="Times,serif" font-size="14.00">&lt;statTemp&gt;$7: Integer = &lt;self&gt;: Object.sleep(&lt;statTemp&gt;$9: Integer(1))</text>
<text text-anchor="start" x="73.59" y="-700.8" font-family="Times,serif" font-size="14.00">&lt;statTemp&gt;$10: Integer(0) = loop_count</text>
<text text-anchor="start" x="73.59" y="-685.8" font-family="Times,serif" font-size="14.00">&lt;statTemp&gt;$11: Integer(1) = 1</text>
<text text-anchor="start" x="73.59" y="-670.8" font-family="Times,serif" font-size="14.00">loop_count: Integer = &lt;statTemp&gt;$10: Integer(0).+(&lt;statTemp&gt;$11: Integer(1))</text>
<text text-anchor="start" x="73.59" y="-655.8" font-family="Times,serif" font-size="14.00">&lt;unconditional&gt;</text>
</g>
<!-- bb::Object#example_5&#45;&gt;bb::Object#example_8 -->
<g id="edge7" class="edge">
<title>bb::Object#example_5&#45;&gt;bb::Object#example_8</title>
<path fill="none" stroke="black" stroke-width="2" d="M358.64,-811.69C358.22,-803.81 357.97,-795.1 357.88,-786.21"/>
<polygon fill="black" stroke="black" stroke-width="2" points="361.38,-786.13 357.85,-776.14 354.38,-786.15 361.38,-786.13"/>
</g>
<!-- bb::Object#example_6 -->
<g id="node9" class="node">
<title>bb::Object#example_6</title>
<polygon fill="none" stroke="red" points="1279.59,-746 681.59,-746 681.59,-678 1279.59,-678 1279.59,-746"/>
<text text-anchor="start" x="689.59" y="-730.8" font-family="Times,serif" font-size="14.00">block[id=6, rubyRegionId=1](&lt;self&gt;: Object, loop_count: Integer(0), &lt;magic&gt;$12: T.class_of(&lt;Magic&gt;))</text>
<text text-anchor="start" x="689.59" y="-715.8" font-family="Times,serif" font-size="14.00">&lt;returnMethodTemp&gt;$2 = nil</text>
<text text-anchor="start" x="689.59" y="-700.8" font-family="Times,serif" font-size="14.00">&lt;exceptionValue&gt;$3 = &lt;get&#45;current&#45;exception&gt;</text>
<text text-anchor="start" x="689.59" y="-685.8" font-family="Times,serif" font-size="14.00">&lt;exceptionValue&gt;$3</text>
</g>
<!-- bb::Object#example_5&#45;&gt;bb::Object#example_6 -->
<g id="edge8" class="edge">
<title>bb::Object#example_5&#45;&gt;bb::Object#example_6</title>
<polygon fill="black" stroke="transparent" points="518.95,-812.44 532.72,-809.46 546.82,-806.42 561.2,-803.31 575.84,-800.15 590.7,-796.94 605.75,-793.69 620.95,-790.4 636.26,-787.1 651.66,-783.77 667.1,-780.43 682.55,-777.1 697.98,-773.76 713.36,-770.44 728.64,-767.14 743.8,-763.87 758.8,-760.63 773.6,-757.43 788.17,-754.28 802.48,-751.19 816.49,-748.17 816.49,-748.17 802.47,-751.15 788.15,-754.19 773.57,-757.29 758.76,-760.44 743.75,-763.63 728.58,-766.85 713.29,-770.1 697.9,-773.37 682.46,-776.66 666.99,-779.94 651.54,-783.23 636.13,-786.5 620.81,-789.76 605.6,-792.99 590.55,-796.19 575.67,-799.35 561.02,-802.47 546.63,-805.53 532.52,-808.53 518.74,-811.46 518.95,-812.44"/>
<polygon fill="black" stroke="black" points="817.45,-751.54 826.49,-746.02 815.98,-744.69 817.45,-751.54"/>
</g>
<!-- bb::Object#example_8&#45;&gt;bb::Object#example_5 -->
<g id="edge11" class="edge">
<title>bb::Object#example_8&#45;&gt;bb::Object#example_5</title>
<path fill="none" stroke="black" stroke-width="2" d="M371.34,-776.14C371.37,-784.78 371.25,-793.48 370.98,-801.66"/>
<polygon fill="black" stroke="black" stroke-width="2" points="367.48,-801.55 370.55,-811.69 374.47,-801.85 367.48,-801.55"/>
</g>
<!-- bb::Object#example_6&#45;&gt;bb::Object#example_3 -->
<g id="edge9" class="edge">
<title>bb::Object#example_6&#45;&gt;bb::Object#example_3</title>
<path fill="none" stroke="black" stroke-width="2" d="M896.49,-677.86C848.51,-658.96 788.28,-635.22 738.86,-615.75"/>
<polygon fill="black" stroke="black" stroke-width="2" points="740.03,-612.45 729.44,-612.04 737.46,-618.96 740.03,-612.45"/>
</g>
<!-- bb::Object#example_9 -->
<g id="node10" class="node">
<title>bb::Object#example_9</title>
<polygon fill="none" stroke="red" points="1279.59,-366.5 901.59,-366.5 901.59,-328.5 1279.59,-328.5 1279.59,-366.5"/>
<text text-anchor="start" x="909.59" y="-351.3" font-family="Times,serif" font-size="14.00">block[id=9, rubyRegionId=4](&lt;returnMethodTemp&gt;$2: NilClass)</text>
<text text-anchor="start" x="909.59" y="-336.3" font-family="Times,serif" font-size="14.00">&lt;unconditional&gt;</text>
</g>
<!-- bb::Object#example_6&#45;&gt;bb::Object#example_9 -->
<g id="edge10" class="edge">
<title>bb::Object#example_6&#45;&gt;bb::Object#example_9</title>
<polygon fill="black" stroke="transparent" points="1062.19,-678.29 1072.3,-673.27 1082.69,-667.89 1093.3,-662.14 1104.07,-656.04 1114.94,-649.57 1125.87,-642.74 1136.8,-635.54 1147.66,-627.97 1158.4,-620.04 1168.97,-611.73 1179.31,-603.06 1189.37,-594.01 1199.08,-584.59 1208.4,-574.79 1217.26,-564.62 1225.61,-554.07 1233.39,-543.15 1240.55,-531.84 1247.04,-520.15 1252.78,-508.09 1254.53,-504.03 1256.14,-500.15 1257.6,-496.44 1258.9,-492.87 1260.04,-489.43 1261.01,-486.09 1261.8,-482.84 1262.4,-479.65 1262.81,-476.52 1263.03,-473.42 1263.04,-470.32 1262.83,-467.23 1262.41,-464.1 1261.76,-460.93 1260.87,-457.7 1259.75,-454.39 1258.38,-450.97 1256.75,-447.44 1254.86,-443.77 1252.71,-439.93 1249.65,-435.01 1246.34,-430.24 1242.81,-425.65 1239.07,-421.21 1235.13,-416.94 1231.01,-412.82 1226.73,-408.85 1222.29,-405.04 1217.72,-401.38 1213.03,-397.86 1208.23,-394.5 1203.34,-391.27 1198.38,-388.18 1193.36,-385.23 1188.3,-382.42 1183.21,-379.73 1178.1,-377.18 1172.99,-374.76 1167.91,-372.46 1162.85,-370.28 1162.85,-370.28 1167.9,-372.47 1172.98,-374.78 1178.08,-377.21 1183.18,-379.78 1188.27,-382.47 1193.33,-385.3 1198.34,-388.26 1203.29,-391.35 1208.17,-394.59 1212.95,-397.97 1217.63,-401.49 1222.19,-405.16 1226.62,-408.98 1230.89,-412.95 1234.99,-417.07 1238.92,-421.35 1242.64,-425.78 1246.16,-430.38 1249.44,-435.14 1252.48,-440.07 1254.63,-443.89 1256.5,-447.56 1258.11,-451.09 1259.47,-454.49 1260.58,-457.79 1261.46,-461 1262.1,-464.15 1262.51,-467.26 1262.71,-470.33 1262.69,-473.4 1262.47,-476.48 1262.05,-479.6 1261.44,-482.76 1260.65,-485.99 1259.68,-489.31 1258.54,-492.74 1257.23,-496.3 1255.77,-500 1254.16,-503.87 1252.4,-507.91 1246.64,-519.95 1240.14,-531.6 1232.97,-542.86 1225.18,-553.75 1216.82,-564.26 1207.95,-574.39 1198.63,-584.15 1188.92,-593.53 1178.86,-602.54 1168.52,-611.18 1157.95,-619.44 1147.2,-627.34 1136.34,-634.87 1125.42,-642.03 1114.49,-648.83 1103.62,-655.27 1092.85,-661.34 1082.24,-667.05 1071.86,-672.4 1061.74,-677.4 1062.19,-678.29"/>
<polygon fill="black" stroke="black" points="1164.07,-367 1153.49,-366.5 1161.45,-373.49 1164.07,-367"/>
</g>
<!-- bb::Object#example_9&#45;&gt;bb::Object#example_10 -->
<g id="edge12" class="edge">
<title>bb::Object#example_9&#45;&gt;bb::Object#example_10</title>
<path fill="none" stroke="black" stroke-width="2" d="M1030.98,-328.42C967.14,-309.05 865.94,-278.36 798.67,-257.95"/>
<polygon fill="black" stroke="black" stroke-width="2" points="799.58,-254.57 788.99,-255.02 797.55,-261.27 799.58,-254.57"/>
</g>
<!-- bb::Object#example_10&#45;&gt;bb::Object#example_1 -->
<g id="edge13" class="edge">
<title>bb::Object#example_10&#45;&gt;bb::Object#example_1</title>
<path fill="none" stroke="black" stroke-width="2" d="M672.08,-216.89C655.44,-208.68 639.2,-197.1 629.59,-181 617.53,-160.77 618.92,-149 629.59,-128 635.2,-116.96 643.35,-107.2 652.61,-98.69"/>
<polygon fill="black" stroke="black" stroke-width="2" points="654.94,-101.3 660.25,-92.13 650.38,-95.99 654.94,-101.3"/>
</g>
<!-- bb::Object#example_16 -->
<g id="node12" class="node">
<title>bb::Object#example_16</title>
<polygon fill="none" stroke="black" points="1040.09,-181 639.09,-181 639.09,-128 1040.09,-128 1040.09,-181"/>
<text text-anchor="start" x="647.09" y="-165.8" font-family="Times,serif" font-size="14.00">block[id=16, rubyRegionId=0](&lt;returnMethodTemp&gt;$2: NilClass)</text>
<text text-anchor="start" x="647.09" y="-150.8" font-family="Times,serif" font-size="14.00">&lt;finalReturn&gt;: T.noreturn = return &lt;returnMethodTemp&gt;$2: NilClass</text>
<text text-anchor="start" x="647.09" y="-135.8" font-family="Times,serif" font-size="14.00">&lt;unconditional&gt;</text>
</g>
<!-- bb::Object#example_10&#45;&gt;bb::Object#example_16 -->
<g id="edge14" class="edge">
<title>bb::Object#example_10&#45;&gt;bb::Object#example_16</title>
<polygon fill="black" stroke="transparent" points="754.85,-217.37 756.7,-216 758.59,-214.6 760.52,-213.18 762.48,-211.73 764.48,-210.26 766.5,-208.77 768.55,-207.26 770.62,-205.73 772.71,-204.19 774.82,-202.63 776.94,-201.07 779.07,-199.5 781.21,-197.92 783.35,-196.34 785.5,-194.76 787.64,-193.17 789.78,-191.6 791.91,-190.02 794.04,-188.46 796.15,-186.9 796.15,-186.9 794.01,-188.42 791.85,-189.94 789.69,-191.47 787.52,-193.01 785.35,-194.55 783.17,-196.09 781,-197.63 778.83,-199.16 776.67,-200.69 774.52,-202.22 772.38,-203.73 770.26,-205.23 768.16,-206.72 766.08,-208.19 764.03,-209.64 762.01,-211.07 760.02,-212.48 758.06,-213.87 756.14,-215.23 754.26,-216.55 754.85,-217.37"/>
<polygon fill="black" stroke="black" points="798.25,-189.7 804.31,-181 794.15,-184.02 798.25,-189.7"/>
</g>
<!-- bb::Object#example_16&#45;&gt;bb::Object#example_1 -->
<g id="edge19" class="edge">
<title>bb::Object#example_16&#45;&gt;bb::Object#example_1</title>
<path fill="none" stroke="black" stroke-width="2" d="M810.98,-127.88C801.15,-119.08 789.85,-108.96 778.86,-99.12"/>
<polygon fill="black" stroke="black" stroke-width="2" points="781.11,-96.43 771.32,-92.37 776.44,-101.65 781.11,-96.43"/>
</g>
<!-- bb::Object#example_13&#45;&gt;bb::Object#example_10 -->
<g id="edge18" class="edge">
<title>bb::Object#example_13&#45;&gt;bb::Object#example_10</title>
<path fill="none" stroke="black" stroke-width="2" d="M654.44,-290.79C669.07,-280.31 683.64,-269.89 696,-261.04"/>
<polygon fill="black" stroke="black" stroke-width="2" points="698.09,-263.85 704.18,-255.19 694.01,-258.16 698.09,-263.85"/>
</g>
<!-- bb::&lt;Class:&lt;root&gt;&gt;#&lt;static&#45;init&gt;_0 -->
<g id="node14" class="node">
<title>bb::&lt;Class:&lt;root&gt;&gt;#&lt;static&#45;init&gt;_0</title>
<polygon fill="none" stroke="black" points="1303.98,-1078.11 1702.59,-1027.96 2101.21,-1078.11 2100.84,-1159.27 1304.35,-1159.27 1303.98,-1078.11"/>
<text text-anchor="start" x="1383.69" y="-1126.84" font-family="Times,serif" font-size="14.00">block[id=0, rubyRegionId=0]()</text>
<text text-anchor="start" x="1383.69" y="-1111.84" font-family="Times,serif" font-size="14.00">&lt;self&gt;: T.class_of(&lt;root&gt;) = cast(&lt;self&gt;: NilClass, T.class_of(&lt;root&gt;));</text>
<text text-anchor="start" x="1383.69" y="-1096.84" font-family="Times,serif" font-size="14.00">&lt;returnMethodTemp&gt;$2: Symbol(:example) = :example</text>
<text text-anchor="start" x="1383.69" y="-1081.84" font-family="Times,serif" font-size="14.00">&lt;finalReturn&gt;: T.noreturn = return &lt;returnMethodTemp&gt;$2: Symbol(:example)</text>
<text text-anchor="start" x="1383.69" y="-1066.84" font-family="Times,serif" font-size="14.00">&lt;unconditional&gt;</text>
</g>
<!-- bb::&lt;Class:&lt;root&gt;&gt;#&lt;static&#45;init&gt;_1 -->
<g id="node15" class="node">
<title>bb::&lt;Class:&lt;root&gt;&gt;#&lt;static&#45;init&gt;_1</title>
<polygon fill="none" stroke="black" points="1897.41,-992 1587.5,-992 1507.78,-916 1817.69,-916 1897.41,-992"/>
<text text-anchor="start" x="1547.78" y="-957.8" font-family="Times,serif" font-size="14.00">block[id=1, rubyRegionId=0]()</text>
<text text-anchor="start" x="1547.78" y="-942.8" font-family="Times,serif" font-size="14.00">&lt;unconditional&gt;</text>
</g>
<!-- bb::&lt;Class:&lt;root&gt;&gt;#&lt;static&#45;init&gt;_0&#45;&gt;bb::&lt;Class:&lt;root&gt;&gt;#&lt;static&#45;init&gt;_1 -->
<g id="edge20" class="edge">
<title>bb::&lt;Class:&lt;root&gt;&gt;#&lt;static&#45;init&gt;_0&#45;&gt;bb::&lt;Class:&lt;root&gt;&gt;#&lt;static&#45;init&gt;_1</title>
<path fill="none" stroke="black" stroke-width="2" d="M1702.59,-1027.7C1702.59,-1019.03 1702.59,-1010.35 1702.59,-1002.16"/>
<polygon fill="black" stroke="black" stroke-width="2" points="1706.09,-1002.1 1702.59,-992.1 1699.09,-1002.1 1706.09,-1002.1"/>
</g>
<!-- bb::&lt;Class:&lt;root&gt;&gt;#&lt;static&#45;init&gt;_1&#45;&gt;bb::&lt;Class:&lt;root&gt;&gt;#&lt;static&#45;init&gt;_1 -->
<g id="edge21" class="edge">
<title>bb::&lt;Class:&lt;root&gt;&gt;#&lt;static&#45;init&gt;_1&#45;&gt;bb::&lt;Class:&lt;root&gt;&gt;#&lt;static&#45;init&gt;_1</title>
<path fill="none" stroke="black" stroke-width="2" d="M1876.77,-971.91C1900.04,-968.88 1915.5,-962.91 1915.5,-954 1915.5,-941.63 1885.7,-934.92 1846.58,-933.89"/>
<polygon fill="black" stroke="black" stroke-width="2" points="1846.49,-930.39 1836.44,-933.75 1846.39,-937.39 1846.49,-930.39"/>
</g>
</g>
</svg>
