<?xml version="1.0" standalone="yes"?>

<svg version="1.1" viewBox="0.0 0.0 493.0 425.0" fill="none" stroke="none" stroke-linecap="square" stroke-miterlimit="10" xmlns="http://www.w3.org/2000/svg" xmlns:xlink="http://www.w3.org/1999/xlink"><clipPath id="p.0"><path d="m0 0l493.0 0l0 425.0l-493.0 0l0 -425.0z" clip-rule="nonzero"></path></clipPath><g clip-path="url(#p.0)"><path fill="#000000" fill-opacity="0.0" d="m0 0l493.7743 0l0 425.5958l-493.7743 0z" fill-rule="nonzero"></path><path fill="#3d85c6" d="m161.6768 61.608963l0 0c-1.6157684 -12.434353 3.6891022 -24.74361 13.663574 -31.704498c9.974472 -6.960888 22.869232 -7.3526173 33.212555 -1.0089645l0 0c3.6639252 -7.229849 10.369965 -12.221561 18.089676 -13.4652405c7.7197266 -1.243679 15.546402 1.4067497 21.112625 7.149584l0 0c3.1212006 -6.555046 9.24971 -10.9592 16.21083 -11.649638c6.96109 -0.6904383 13.769653 2.4305534 18.009613 8.255485l0 0c5.6388855 -6.948333 14.610474 -9.87387 23.032745 -7.5107145c8.422272 2.3631544 14.782471 9.590558 16.328522 18.55487l0 0c6.9086 1.9733543 12.6633 6.989887 15.777313 13.753483c3.1139832 6.7635994 3.2817993 14.610767 0.4600525 21.514053l0 0c6.802948 9.271858 8.394318 21.626503 4.1802673 32.4534c-4.2140503 10.826889 -13.600433 18.499413 -24.656311 20.15432c-0.077941895 10.161423 -5.399658 19.485428 -13.91394 24.378128c-8.514313 4.8927 -18.891632 4.590088 -27.13211 -0.79119873c-3.5100098 12.170074 -13.389526 21.12468 -25.370224 22.995132c-11.980698 1.8704376 -23.914795 -3.6786041 -30.646332 -14.249741c-8.251465 5.210556 -18.152527 6.711548 -27.469727 4.164398c-9.317184 -2.547165 -17.26567 -8.927902 -22.052414 -17.702866l0 0c-8.431961 1.0332642 -16.584488 -3.5414886 -20.41153 -11.453857c-3.8270416 -7.912361 -2.513916 -17.477966 3.2877045 -23.949448l0 0c-7.52153 -4.6358566 -11.359467 -13.834938 -9.512466 -22.800285c1.8469849 -8.96534 8.960358 -15.665371 17.630768 -16.606277z" fill-rule="nonzero"></path><path fill="#000000" fill-opacity="0.0" d="m153.39182 101.49477l0 0c3.5494385 2.1876755 7.6498566 3.1800537 11.750732 2.8439026m5.3712463 32.560196c1.7635345 -0.21611023 3.4921112 -0.67375183 5.1411896 -1.3610992m44.37848 14.899002c-1.2403412 -1.9478302 -2.2788239 -4.029251 -3.0977478 -6.2088165m59.11644 -2.5369415l0 0c0.6399231 -2.2187805 1.0545654 -4.5023956 1.2369385 -6.812729m39.807587 -16.773354c0.08294678 -10.818405 -5.78479 -20.723846 -15.082825 -25.461647m35.558685 -27.144936c-1.5057983 3.683876 -3.8045654 6.951782 -6.716034 9.547508m-9.519928 -44.816006l0 0c0.25656128 1.4876308 0.37530518 2.9976196 0.35455322 4.509037m-39.71515 -15.552744l0 0c-1.4066467 1.7332649 -2.5654907 3.670164 -3.4405518 5.750389m-30.780228 -2.3569908l0 0c-0.7496033 1.5743103 -1.3093567 3.2402 -1.6663818 4.9592953m-37.5365 1.3564911l0 0c2.1886444 1.3423138 4.21344 2.9579315 6.029892 4.811363m-52.90541 27.902275l0 0c0.22268677 1.7137756 0.57455444 3.4064255 1.0523071 5.0621033" fill-rule="nonzero"></path><path stroke="#000000" stroke-width="2.0" stroke-linejoin="round" stroke-linecap="butt" d="m161.6768 61.608963l0 0c-1.6157684 -12.434353 3.6891022 -24.74361 13.663574 -31.704498c9.974472 -6.960888 22.869232 -7.3526173 33.212555 -1.0089645l0 0c3.6639252 -7.229849 10.369965 -12.221561 18.089676 -13.4652405c7.7197266 -1.243679 15.546402 1.4067497 21.112625 7.149584l0 0c3.1212006 -6.555046 9.24971 -10.9592 16.21083 -11.649638c6.96109 -0.6904383 13.769653 2.4305534 18.009613 8.255485l0 0c5.6388855 -6.948333 14.610474 -9.87387 23.032745 -7.5107145c8.422272 2.3631544 14.782471 9.590558 16.328522 18.55487l0 0c6.9086 1.9733543 12.6633 6.989887 15.777313 13.753483c3.1139832 6.7635994 3.2817993 14.610767 0.4600525 21.514053l0 0c6.802948 9.271858 8.394318 21.626503 4.1802673 32.4534c-4.2140503 10.826889 -13.600433 18.499413 -24.656311 20.15432c-0.077941895 10.161423 -5.399658 19.485428 -13.91394 24.378128c-8.514313 4.8927 -18.891632 4.590088 -27.13211 -0.79119873c-3.5100098 12.170074 -13.389526 21.12468 -25.370224 22.995132c-11.980698 1.8704376 -23.914795 -3.6786041 -30.646332 -14.249741c-8.251465 5.210556 -18.152527 6.711548 -27.469727 4.164398c-9.317184 -2.547165 -17.26567 -8.927902 -22.052414 -17.702866l0 0c-8.431961 1.0332642 -16.584488 -3.5414886 -20.41153 -11.453857c-3.8270416 -7.912361 -2.513916 -17.477966 3.2877045 -23.949448l0 0c-7.52153 -4.6358566 -11.359467 -13.834938 -9.512466 -22.800285c1.8469849 -8.96534 8.960358 -15.665371 17.630768 -16.606277z" fill-rule="nonzero"></path><path stroke="#000000" stroke-width="2.0" stroke-linejoin="round" stroke-linecap="butt" d="m153.39182 101.49477l0 0c3.5494385 2.1876755 7.6498566 3.1800537 11.750732 2.8439026m5.3712463 32.560196c1.7635345 -0.21611023 3.4921112 -0.67375183 5.1411896 -1.3610992m44.37848 14.899002c-1.2403412 -1.9478302 -2.2788239 -4.029251 -3.0977478 -6.2088165m59.11644 -2.5369415l0 0c0.6399231 -2.2187805 1.0545654 -4.5023956 1.2369385 -6.812729m39.807587 -16.773354c0.08294678 -10.818405 -5.78479 -20.723846 -15.082825 -25.461647m35.558685 -27.144936c-1.5057983 3.683876 -3.8045654 6.951782 -6.716034 9.547508m-9.519928 -44.816006l0 0c0.25656128 1.4876308 0.37530518 2.9976196 0.35455322 4.509037m-39.71515 -15.552744l0 0c-1.4066467 1.7332649 -2.5654907 3.670164 -3.4405518 5.750389m-30.780228 -2.3569908l0 0c-0.7496033 1.5743103 -1.3093567 3.2402 -1.6663818 4.9592953m-37.5365 1.3564911l0 0c2.1886444 1.3423138 4.21344 2.9579315 6.029892 4.811363m-52.90541 27.902275l0 0c0.22268677 1.7137756 0.57455444 3.4064255 1.0523071 5.0621033" fill-rule="nonzero"></path><path fill="#ffffff" d="m198.58878 87.25867q0 -4.609375 2.5625 -6.828125q2.140625 -1.84375 5.21875 -1.84375q3.421875 0 5.59375 2.25q2.171875 2.234375 2.171875 6.1875q0 3.203125 -0.96875 5.046875q-0.953125 1.828125 -2.796875 2.84375q-1.828125 1.015625 -4.0 1.015625q-3.484375 0 -5.640625 -2.234375q-2.140625 -2.234375 -2.140625 -6.4375zm2.890625 0q0 3.1875 1.390625 4.78125q1.390625 1.578125 3.5 1.578125q2.09375 0 3.484375 -1.59375q1.390625 -1.59375 1.390625 -4.859375q0 -3.078125 -1.40625 -4.65625q-1.390625 -1.59375 -3.46875 -1.59375q-2.109375 0 -3.5 1.578125q-1.390625 1.578125 -1.390625 4.765625zm15.921875 8.296875l0 -16.59375l2.53125 0l0 2.515625q0.96875 -1.765625 1.78125 -2.328125q0.828125 -0.5625 1.8125 -0.5625q1.421875 0 2.890625 0.90625l-0.96875 2.609375q-1.03125 -0.609375 -2.0625 -0.609375q-0.921875 0 -1.65625 0.5625q-0.734375 0.546875 -1.046875 1.53125q-0.46875 1.5 -0.46875 3.28125l0 8.6875l-2.8125 0zm10.703125 -19.671875l0 -3.234375l2.8125 0l0 3.234375l-2.8125 0zm0 19.671875l0 -16.59375l2.8125 0l0 16.59375l-2.8125 0zm6.578125 1.375l2.734375 0.40625q0.171875 1.265625 0.953125 1.84375q1.046875 0.78125 2.859375 0.78125q1.953125 0 3.015625 -0.78125q1.0625 -0.78125 1.4375 -2.1875q0.21875 -0.859375 0.203125 -3.609375q-1.84375 2.171875 -4.59375 2.171875q-3.421875 0 -5.296875 -2.46875q-1.875 -2.46875 -1.875 -5.921875q0 -2.375 0.859375 -4.375q0.859375 -2.015625 2.484375 -3.109375q1.640625 -1.09375 3.84375 -1.09375q2.9375 0 4.84375 2.375l0 -2.0l2.59375 0l0 14.34375q0 3.875 -0.796875 5.484375q-0.78125 1.625 -2.5 2.5625q-1.703125 0.9375 -4.203125 0.9375q-2.96875 0 -4.796875 -1.34375q-1.828125 -1.328125 -1.765625 -4.015625zm2.328125 -9.96875q0 3.265625 1.296875 4.765625q1.296875 1.5 3.25 1.5q1.9375 0 3.25 -1.484375q1.3125 -1.5 1.3125 -4.6875q0 -3.046875 -1.359375 -4.59375q-1.34375 -1.546875 -3.25 -1.546875q-1.875 0 -3.1875 1.53125q-1.3125 1.515625 -1.3125 4.515625zm16.0 -11.078125l0 -3.234375l2.8125 0l0 3.234375l-2.8125 0zm0 19.671875l0 -16.59375l2.8125 0l0 16.59375l-2.8125 0zm7.09375 0l0 -16.59375l2.53125 0l0 2.359375q1.828125 -2.734375 5.28125 -2.734375q1.5 0 2.75 0.546875q1.265625 0.53125 1.890625 1.40625q0.625 0.875 0.875 2.078125q0.15625 0.78125 0.15625 2.734375l0 10.203125l-2.8125 0l0 -10.09375q0 -1.71875 -0.328125 -2.5625q-0.328125 -0.859375 -1.171875 -1.359375q-0.828125 -0.515625 -1.953125 -0.515625q-1.796875 0 -3.109375 1.140625q-1.296875 1.140625 -1.296875 4.328125l0 9.0625l-2.8125 0z" fill-rule="nonzero"></path><path fill="#3d85c6" d="m12.396325 223.12862l189.03937 0l0 189.03935l-189.03937 0z" fill-rule="nonzero"></path><path stroke="#000000" stroke-width="2.0" stroke-linejoin="round" stroke-linecap="butt" d="m12.396325 223.12862l189.03937 0l0 189.03935l-189.03937 0z" fill-rule="nonzero"></path><path fill="#ffffff" d="m46.52823 319.80267l1.796875 0.453125q-0.5625 2.21875 -2.03125 3.390625q-1.46875 1.15625 -3.59375 1.15625q-2.203125 0 -3.578125 -0.890625q-1.375 -0.90625 -2.09375 -2.59375q-0.71875 -1.703125 -0.71875 -3.65625q0 -2.125 0.796875 -3.703125q0.8125 -1.578125 2.3125 -2.390625q1.5 -0.828125 3.296875 -0.828125q2.046875 0 3.4375 1.046875q1.390625 1.03125 1.9375 2.90625l-1.765625 0.421875q-0.46875 -1.484375 -1.375 -2.15625q-0.90625 -0.6875 -2.265625 -0.6875q-1.5625 0 -2.625 0.75q-1.046875 0.75 -1.484375 2.03125q-0.421875 1.265625 -0.421875 2.609375q0 1.734375 0.5 3.03125q0.515625 1.28125 1.578125 1.921875q1.078125 0.640625 2.3125 0.640625q1.515625 0 2.5625 -0.859375q1.046875 -0.875 1.421875 -2.59375zm3.5198212 4.765625l0 -13.59375l1.671875 0l0 13.59375l-1.671875 0zm3.5510712 -4.921875q0 -2.734375 1.53125 -4.0625q1.265625 -1.09375 3.09375 -1.09375q2.03125 0 3.3125 1.34375q1.296875 1.328125 1.296875 3.671875q0 1.90625 -0.578125 3.0q-0.5625 1.078125 -1.65625 1.6875q-1.078125 0.59375 -2.375 0.59375q-2.0625 0 -3.34375 -1.328125q-1.28125 -1.328125 -1.28125 -3.8125zm1.71875 0q0 1.890625 0.828125 2.828125q0.828125 0.9375 2.078125 0.9375q1.25 0 2.0625 -0.9375q0.828125 -0.953125 0.828125 -2.890625q0 -1.828125 -0.828125 -2.765625q-0.828125 -0.9375 -2.0625 -0.9375q-1.25 0 -2.078125 0.9375q-0.828125 0.9375 -0.828125 2.828125zm9.281967 4.921875l0 -9.859375l1.5 0l0 1.40625q1.09375 -1.625 3.140625 -1.625q0.890625 0 1.640625 0.328125q0.75 0.3125 1.109375 0.84375q0.375 0.515625 0.53125 1.21875q0.09375 0.46875 0.09375 1.625l0 6.0625l-1.671875 0l0 -6.0q0 -1.015625 -0.203125 -1.515625q-0.1875 -0.515625 -0.6875 -0.8125q-0.5 -0.296875 -1.171875 -0.296875q-1.0625 0 -1.84375 0.671875q-0.765625 0.671875 -0.765625 2.578125l0 5.375l-1.671875 0zm17.125717 -3.171875l1.71875 0.21875q-0.40625 1.5 -1.515625 2.34375q-1.09375 0.828125 -2.8125 0.828125q-2.15625 0 -3.421875 -1.328125q-1.265625 -1.328125 -1.265625 -3.734375q0 -2.484375 1.265625 -3.859375q1.28125 -1.375 3.328125 -1.375q1.984375 0 3.234375 1.34375q1.25 1.34375 1.25 3.796875q0 0.140625 -0.015625 0.4375l-7.34375 0q0.09375 1.625 0.921875 2.484375q0.828125 0.859375 2.0625 0.859375q0.90625 0 1.546875 -0.46875q0.65625 -0.484375 1.046875 -1.546875zm-5.484375 -2.703125l5.5 0q-0.109375 -1.234375 -0.625 -1.859375q-0.796875 -0.96875 -2.078125 -0.96875q-1.140625 0 -1.9375 0.78125q-0.78125 0.765625 -0.859375 2.046875zm13.668396 0.953125q0 -2.734375 1.53125 -4.0625q1.265625 -1.09375 3.09375 -1.09375q2.03125 0 3.3125 1.34375q1.296875 1.328125 1.296875 3.671875q0 1.90625 -0.578125 3.0q-0.5625 1.078125 -1.65625 1.6875q-1.078125 0.59375 -2.375 0.59375q-2.0625 0 -3.34375 -1.328125q-1.28125 -1.328125 -1.28125 -3.8125zm1.71875 0q0 1.890625 0.828125 2.828125q0.828125 0.9375 2.078125 0.9375q1.25 0 2.0625 -0.9375q0.828125 -0.953125 0.828125 -2.890625q0 -1.828125 -0.828125 -2.765625q-0.828125 -0.9375 -2.0625 -0.9375q-1.25 0 -2.078125 0.9375q-0.828125 0.9375 -0.828125 2.828125zm9.281967 4.921875l0 -9.859375l1.5 0l0 1.40625q1.09375 -1.625 3.140625 -1.625q0.890625 0 1.640625 0.328125q0.75 0.3125 1.109375 0.84375q0.375 0.515625 0.53125 1.21875q0.09375 0.46875 0.09375 1.625l0 6.0625l-1.671875 0l0 -6.0q0 -1.015625 -0.203125 -1.515625q-0.1875 -0.515625 -0.6875 -0.8125q-0.5 -0.296875 -1.171875 -0.296875q-1.0625 0 -1.84375 0.671875q-0.765625 0.671875 -0.765625 2.578125l0 5.375l-1.671875 0zm14.277771 0l5.234375 -13.59375l1.9375 0l5.5625 13.59375l-2.046875 0l-1.59375 -4.125l-5.6875 0l-1.484375 4.125l-1.921875 0zm3.921875 -5.578125l4.609375 0l-1.40625 -3.78125q-0.65625 -1.703125 -0.96875 -2.8125q-0.265625 1.3125 -0.734375 2.59375l-1.5 4.0zm9.802948 5.578125l0 -9.859375l1.5 0l0 1.40625q1.09375 -1.625 3.140625 -1.625q0.890625 0 1.640625 0.328125q0.75 0.3125 1.109375 0.84375q0.375 0.515625 0.53125 1.21875q0.09375 0.46875 0.09375 1.625l0 6.0625l-1.671875 0l0 -6.0q0 -1.015625 -0.203125 -1.515625q-0.1875 -0.515625 -0.6875 -0.8125q-0.5 -0.296875 -1.171875 -0.296875q-1.0625 0 -1.84375 0.671875q-0.765625 0.671875 -0.765625 2.578125l0 5.375l-1.671875 0zm16.766342 0l0 -1.25q-0.9375 1.46875 -2.75 1.46875q-1.171875 0 -2.171875 -0.640625q-0.984375 -0.65625 -1.53125 -1.8125q-0.53125 -1.171875 -0.53125 -2.6875q0 -1.46875 0.484375 -2.671875q0.5 -1.203125 1.46875 -1.84375q0.984375 -0.640625 2.203125 -0.640625q0.890625 0 1.578125 0.375q0.703125 0.375 1.140625 0.984375l0 -4.875l1.65625 0l0 13.59375l-1.546875 0zm-5.28125 -4.921875q0 1.890625 0.796875 2.828125q0.8125 0.9375 1.890625 0.9375q1.09375 0 1.859375 -0.890625q0.765625 -0.890625 0.765625 -2.734375q0 -2.015625 -0.78125 -2.953125q-0.78125 -0.953125 -1.921875 -0.953125q-1.109375 0 -1.859375 0.90625q-0.75 0.90625 -0.75 2.859375zm9.250732 4.921875l0 -9.859375l1.5 0l0 1.5q0.578125 -1.046875 1.0625 -1.375q0.484375 -0.34375 1.078125 -0.34375q0.84375 0 1.71875 0.546875l-0.578125 1.546875q-0.609375 -0.359375 -1.234375 -0.359375q-0.546875 0 -0.984375 0.328125q-0.421875 0.328125 -0.609375 0.90625q-0.28125 0.890625 -0.28125 1.953125l0 5.15625l-1.671875 0zm12.978302 -3.171875l1.71875 0.21875q-0.40625 1.5 -1.515625 2.34375q-1.09375 0.828125 -2.8125 0.828125q-2.15625 0 -3.421875 -1.328125q-1.265625 -1.328125 -1.265625 -3.734375q0 -2.484375 1.265625 -3.859375q1.28125 -1.375 3.328125 -1.375q1.984375 0 3.234375 1.34375q1.25 1.34375 1.25 3.796875q0 0.140625 -0.015625 0.4375l-7.34375 0q0.09375 1.625 0.921875 2.484375q0.828125 0.859375 2.0625 0.859375q0.90625 0 1.546875 -0.46875q0.65625 -0.484375 1.046875 -1.546875zm-5.484375 -2.703125l5.5 0q-0.109375 -1.234375 -0.625 -1.859375q-0.796875 -0.96875 -2.078125 -0.96875q-1.140625 0 -1.9375 0.78125q-0.78125 0.765625 -0.859375 2.046875zm10.938202 5.875l-3.015625 -9.859375l1.71875 0l1.5625 5.6875l0.59375 2.125q0.03125 -0.15625 0.5 -2.03125l1.578125 -5.78125l1.71875 0l1.46875 5.71875l0.484375 1.890625l0.578125 -1.90625l1.6875 -5.703125l1.625 0l-3.078125 9.859375l-1.734375 0l-1.578125 -5.90625l-0.375 -1.671875l-2.0 7.578125l-1.734375 0z" fill-rule="nonzero"></path><path fill="#3d85c6" d="m292.84778 223.12862l189.03937 0l0 189.03935l-189.03937 0z" fill-rule="nonzero"></path><path stroke="#000000" stroke-width="2.0" stroke-linejoin="round" stroke-linecap="butt" d="m292.84778 223.12862l189.03937 0l0 189.03935l-189.03937 0z" fill-rule="nonzero"></path><path fill="#ffffff" d="m330.0769 319.80267l1.796875 0.453125q-0.5625 2.21875 -2.03125 3.390625q-1.46875 1.15625 -3.59375 1.15625q-2.203125 0 -3.578125 -0.890625q-1.375 -0.90625 -2.09375 -2.59375q-0.71875 -1.703125 -0.71875 -3.65625q0 -2.125 0.796875 -3.703125q0.8125 -1.578125 2.3125 -2.390625q1.5 -0.828125 3.296875 -0.828125q2.046875 0 3.4375 1.046875q1.390625 1.03125 1.9375 2.90625l-1.765625 0.421875q-0.46875 -1.484375 -1.375 -2.15625q-0.90625 -0.6875 -2.265625 -0.6875q-1.5625 0 -2.625 0.75q-1.046875 0.75 -1.484375 2.03125q-0.421875 1.265625 -0.421875 2.609375q0 1.734375 0.5 3.03125q0.515625 1.28125 1.578125 1.921875q1.078125 0.640625 2.3125 0.640625q1.515625 0 2.5625 -0.859375q1.046875 -0.875 1.421875 -2.59375zm3.519806 4.765625l0 -13.59375l1.671875 0l0 13.59375l-1.671875 0zm3.5510864 -4.921875q0 -2.734375 1.53125 -4.0625q1.265625 -1.09375 3.09375 -1.09375q2.03125 0 3.3125 1.34375q1.296875 1.328125 1.296875 3.671875q0 1.90625 -0.578125 3.0q-0.5625 1.078125 -1.65625 1.6875q-1.078125 0.59375 -2.375 0.59375q-2.0625 0 -3.34375 -1.328125q-1.28125 -1.328125 -1.28125 -3.8125zm1.71875 0q0 1.890625 0.828125 2.828125q0.828125 0.9375 2.078125 0.9375q1.25 0 2.0625 -0.9375q0.828125 -0.953125 0.828125 -2.890625q0 -1.828125 -0.828125 -2.765625q-0.828125 -0.9375 -2.0625 -0.9375q-1.25 0 -2.078125 0.9375q-0.828125 0.9375 -0.828125 2.828125zm9.281952 4.921875l0 -9.859375l1.5 0l0 1.40625q1.09375 -1.625 3.140625 -1.625q0.890625 0 1.640625 0.328125q0.75 0.3125 1.109375 0.84375q0.375 0.515625 0.53125 1.21875q0.09375 0.46875 0.09375 1.625l0 6.0625l-1.671875 0l0 -6.0q0 -1.015625 -0.203125 -1.515625q-0.1875 -0.515625 -0.6875 -0.8125q-0.5 -0.296875 -1.171875 -0.296875q-1.0625 0 -1.84375 0.671875q-0.765625 0.671875 -0.765625 2.578125l0 5.375l-1.671875 0zm17.125732 -3.171875l1.71875 0.21875q-0.40625 1.5 -1.515625 2.34375q-1.09375 0.828125 -2.8125 0.828125q-2.15625 0 -3.421875 -1.328125q-1.265625 -1.328125 -1.265625 -3.734375q0 -2.484375 1.265625 -3.859375q1.28125 -1.375 3.328125 -1.375q1.984375 0 3.234375 1.34375q1.25 1.34375 1.25 3.796875q0 0.140625 -0.015625 0.4375l-7.34375 0q0.09375 1.625 0.921875 2.484375q0.828125 0.859375 2.0625 0.859375q0.90625 0 1.546875 -0.46875q0.65625 -0.484375 1.046875 -1.546875zm-5.484375 -2.703125l5.5 0q-0.109375 -1.234375 -0.625 -1.859375q-0.796875 -0.96875 -2.078125 -0.96875q-1.140625 0 -1.9375 0.78125q-0.78125 0.765625 -0.859375 2.046875zm13.668396 0.953125q0 -2.734375 1.53125 -4.0625q1.265625 -1.09375 3.09375 -1.09375q2.03125 0 3.3125 1.34375q1.296875 1.328125 1.296875 3.671875q0 1.90625 -0.578125 3.0q-0.5625 1.078125 -1.65625 1.6875q-1.078125 0.59375 -2.375 0.59375q-2.0625 0 -3.34375 -1.328125q-1.28125 -1.328125 -1.28125 -3.8125zm1.71875 0q0 1.890625 0.828125 2.828125q0.828125 0.9375 2.078125 0.9375q1.25 0 2.0625 -0.9375q0.828125 -0.953125 0.828125 -2.890625q0 -1.828125 -0.828125 -2.765625q-0.828125 -0.9375 -2.0625 -0.9375q-1.25 0 -2.078125 0.9375q-0.828125 0.9375 -0.828125 2.828125zm9.281952 4.921875l0 -9.859375l1.5 0l0 1.40625q1.09375 -1.625 3.140625 -1.625q0.890625 0 1.640625 0.328125q0.75 0.3125 1.109375 0.84375q0.375 0.515625 0.53125 1.21875q0.09375 0.46875 0.09375 1.625l0 6.0625l-1.671875 0l0 -6.0q0 -1.015625 -0.203125 -1.515625q-0.1875 -0.515625 -0.6875 -0.8125q-0.5 -0.296875 -1.171875 -0.296875q-1.0625 0 -1.84375 0.671875q-0.765625 0.671875 -0.765625 2.578125l0 5.375l-1.671875 0zm15.699646 0l0 -13.59375l1.796875 0l0 11.984375l6.703125 0l0 1.609375l-8.5 0zm16.672607 -1.21875q-0.9375 0.796875 -1.796875 1.125q-0.859375 0.3125 -1.84375 0.3125q-1.609375 0 -2.484375 -0.78125q-0.875 -0.796875 -0.875 -2.03125q0 -0.734375 0.328125 -1.328125q0.328125 -0.59375 0.859375 -0.953125q0.53125 -0.359375 1.203125 -0.546875q0.5 -0.140625 1.484375 -0.25q2.03125 -0.25 2.984375 -0.578125q0 -0.34375 0 -0.4375q0 -1.015625 -0.46875 -1.4375q-0.640625 -0.5625 -1.90625 -0.5625q-1.171875 0 -1.734375 0.40625q-0.5625 0.40625 -0.828125 1.46875l-1.640625 -0.234375q0.234375 -1.046875 0.734375 -1.6875q0.515625 -0.640625 1.46875 -0.984375q0.96875 -0.359375 2.25 -0.359375q1.265625 0 2.046875 0.296875q0.78125 0.296875 1.15625 0.75q0.375 0.453125 0.515625 1.140625q0.09375 0.421875 0.09375 1.53125l0 2.234375q0 2.328125 0.09375 2.953125q0.109375 0.609375 0.4375 1.171875l-1.75 0q-0.265625 -0.515625 -0.328125 -1.21875zm-0.140625 -3.71875q-0.90625 0.359375 -2.734375 0.625q-1.03125 0.140625 -1.453125 0.328125q-0.421875 0.1875 -0.65625 0.546875q-0.234375 0.359375 -0.234375 0.796875q0 0.671875 0.5 1.125q0.515625 0.4375 1.484375 0.4375q0.96875 0 1.71875 -0.421875q0.75 -0.4375 1.109375 -1.15625q0.265625 -0.578125 0.265625 -1.671875l0 -0.609375zm4.078827 8.71875l0 -13.640625l1.5312805 0l0 1.28125q0.53125 -0.75 1.203125 -1.125q0.6875 -0.375 1.640625 -0.375q1.265625 0 2.234375 0.65625q0.96875 0.640625 1.453125 1.828125q0.5 1.1875 0.5 2.59375q0 1.515625 -0.546875 2.734375q-0.546875 1.203125 -1.578125 1.84375q-1.03125 0.640625 -2.171875 0.640625q-0.84375 0 -1.515625 -0.34375q-0.65625 -0.359375 -1.078125 -0.890625l0 4.796875l-1.6719055 0zm1.5156555 -8.65625q0 1.90625 0.765625 2.8125q0.78125 0.90625 1.875 0.90625q1.109375 0 1.890625 -0.9375q0.796875 -0.9375 0.796875 -2.921875q0 -1.875 -0.78125 -2.8125q-0.765625 -0.9375 -1.84375 -0.9375q-1.0625 0 -1.890625 1.0q-0.8125 1.0 -0.8125 2.890625zm12.516327 3.375l0.234375 1.484375q-0.703125 0.140625 -1.265625 0.140625q-0.90625 0 -1.40625 -0.28125q-0.5 -0.296875 -0.703125 -0.75q-0.203125 -0.46875 -0.203125 -1.984375l0 -5.65625l-1.234375 0l0 -1.3125l1.234375 0l0 -2.4375l1.65625 -1.0l0 3.4375l1.6875 0l0 1.3125l-1.6875 0l0 5.75q0 0.71875 0.078125 0.921875q0.09375 0.203125 0.296875 0.328125q0.203125 0.125 0.578125 0.125q0.265625 0 0.734375 -0.078125zm0.9020691 -3.421875q0 -2.734375 1.53125 -4.0625q1.265625 -1.09375 3.09375 -1.09375q2.03125 0 3.3125 1.34375q1.296875 1.328125 1.296875 3.671875q0 1.90625 -0.578125 3.0q-0.5625 1.078125 -1.65625 1.6875q-1.078125 0.59375 -2.375 0.59375q-2.0625 0 -3.34375 -1.328125q-1.28125 -1.328125 -1.28125 -3.8125zm1.71875 0q0 1.890625 0.828125 2.828125q0.828125 0.9375 2.078125 0.9375q1.25 0 2.0625 -0.9375q0.828125 -0.953125 0.828125 -2.890625q0 -1.828125 -0.828125 -2.765625q-0.828125 -0.9375 -2.0625 -0.9375q-1.25 0 -2.078125 0.9375q-0.828125 0.9375 -0.828125 2.828125zm9.281952 8.703125l0 -13.640625l1.53125 0l0 1.28125q0.53125 -0.75 1.203125 -1.125q0.6875 -0.375 1.640625 -0.375q1.265625 0 2.234375 0.65625q0.96875 0.640625 1.453125 1.828125q0.5 1.1875 0.5 2.59375q0 1.515625 -0.546875 2.734375q-0.546875 1.203125 -1.578125 1.84375q-1.03125 0.640625 -2.171875 0.640625q-0.84375 0 -1.515625 -0.34375q-0.65625 -0.359375 -1.078125 -0.890625l0 4.796875l-1.671875 0zm1.515625 -8.65625q0 1.90625 0.765625 2.8125q0.78125 0.90625 1.875 0.90625q1.109375 0 1.890625 -0.9375q0.796875 -0.9375 0.796875 -2.921875q0 -1.875 -0.78125 -2.8125q-0.765625 -0.9375 -1.84375 -0.9375q-1.0625 0 -1.890625 1.0q-0.8125 1.0 -0.8125 2.890625z" fill-rule="nonzero"></path><path fill="#000000" fill-opacity="0.0" d="m73.343834 201.4357l61.984245 -50.61418" fill-rule="nonzero"></path><path stroke="#000000" stroke-width="2.0" stroke-linejoin="round" stroke-linecap="butt" d="m73.343834 201.4357l52.689407 -43.024338" fill-rule="evenodd"></path><path fill="#000000" stroke="#000000" stroke-width="2.0" stroke-linecap="butt" d="m128.12263 160.97014l4.94075 -8.299347l-9.119545 3.1818085z" fill-rule="evenodd"></path><path fill="#000000" fill-opacity="0.0" d="m153.91864 153.91864l-56.8189 47.527557" fill-rule="nonzero"></path><path stroke="#000000" stroke-width="2.0" stroke-linejoin="round" stroke-linecap="butt" d="m153.91864 153.91864l-47.614487 39.828278" fill-rule="evenodd"></path><path fill="#000000" stroke="#000000" stroke-width="2.0" stroke-linecap="butt" d="m104.18464 191.21306l-4.8422394 8.357208l9.081276 -3.2894592z" fill-rule="evenodd"></path><path fill="#000000" fill-opacity="0.0" d="m303.7034 161.14961l58.86615 44.40944" fill-rule="nonzero"></path><path stroke="#000000" stroke-width="2.0" stroke-linejoin="round" stroke-linecap="butt" d="m303.7034 161.14961l49.28647 37.182404" fill-rule="evenodd"></path><path fill="#000000" stroke="#000000" stroke-width="2.0" stroke-linecap="butt" d="m351.00037 200.9692l9.235107 2.8289948l-5.256073 -8.1033325z" fill-rule="evenodd"></path><path fill="#000000" fill-opacity="0.0" d="m383.24408 205.56955l-56.81888 -45.448822" fill-rule="nonzero"></path><path stroke="#000000" stroke-width="2.0" stroke-linejoin="round" stroke-linecap="butt" d="m383.24408 205.56955l-47.447937 -37.95311" fill-rule="evenodd"></path><path fill="#000000" stroke="#000000" stroke-width="2.0" stroke-linecap="butt" d="m337.85962 165.03673l-9.151184 -3.0896606l5.0242004 8.249084z" fill-rule="evenodd"></path><path fill="#000000" fill-opacity="0.0" d="m452.3176 59.30971c-9.735382 45.422955 -46.7265 84.38104 -85.380585 110.14699c-29.204681 19.467163 -65.12158 29.932343 -89.94226 54.74803c-41.288223 41.279892 -44.31758 111.069595 -44.31758 169.45406" fill-rule="evenodd"></path><path stroke="#000000" stroke-width="2.0" stroke-linejoin="round" stroke-linecap="butt" stroke-dasharray="2.0,6.0" d="m452.3176 59.30971c-9.735382 45.422955 -46.7265 84.38104 -85.380585 110.14699c-29.204681 19.467163 -65.12158 29.932343 -89.94226 54.74803c-41.288223 41.279892 -44.31758 111.069595 -44.31758 169.45406" fill-rule="evenodd"></path><path fill="#000000" fill-opacity="0.0" d="m210.15288 286.8523l27.464554 -69.00786l26.64569 10.614166l-27.464584 69.00789z" fill-rule="nonzero"></path><path fill="#000000" d="m234.735 275.7621l0.38020325 -1.6313782q0.49041748 0.07763672 0.8382263 -0.12020874q0.35359192 -0.21234131 0.56736755 -0.7494812q0.2368927 -0.59524536 0.13471985 -0.97232056q-0.07878113 -0.2668457 -0.32554626 -0.36514282q-0.17419434 -0.06939697 -0.33076477 -0.014007568q-0.16235352 0.06985474 -0.40544128 0.42715454q-1.1460114 1.6963196 -1.6763153 2.0569153q-0.75057983 0.4915161 -1.5779724 0.16192627q-0.7548218 -0.30065918 -1.0317535 -1.0837402q-0.27116394 -0.7976074 0.22573853 -2.046112q0.4737854 -1.1904297 1.096817 -1.6150208q0.6085205 -0.4303589 1.4500122 -0.34744263l-0.31651306 1.5558472q-0.368515 -0.045898438 -0.64671326 0.14602661q-0.29270935 0.18615723 -0.48336792 0.66522217q-0.2368927 0.59521484 -0.16670227 0.92593384q0.046783447 0.22045898 0.23548889 0.29562378q0.17419434 0.06939697 0.34809875 -0.029541016q0.2260437 -0.14541626 0.9871826 -1.2550049q0.76690674 -1.1241455 1.3640137 -1.4413147q0.5971222 -0.3171692 1.3229065 -0.028045654q0.7983551 0.31802368 1.113205 1.217102q0.30610657 0.8788147 -0.2138977 2.1853943q-0.46800232 1.1759033 -1.22435 1.6819153q-0.75057983 0.4915161 -1.6646423 0.3796997zm3.8276062 -10.1666565l0.8679657 -1.420227q0.7263489 0.6257019 0.9075928 1.4379578q0.1812439 0.81222534 -0.19430542 1.7558594q-0.6008911 1.5098267 -1.8768616 1.8424988q-1.0149536 0.26846313 -2.219757 -0.2114563q-1.4370575 -0.57244873 -1.9494934 -1.6511841q-0.5124359 -1.0787048 -0.055984497 -2.225586q0.5142212 -1.2920532 1.665329 -1.6912842q1.1423492 -0.41955566 2.881424 0.32366943l-1.5253448 3.832611q0.6937866 0.24273682 1.2098694 0.044647217q0.5160675 -0.1980896 0.7298584 -0.7352295q0.13865662 -0.3484192 0.048187256 -0.67037964q-0.10499573 -0.3277588 -0.4884796 -0.631897zm-1.5039978 -0.7000122q-0.67349243 -0.25146484 -1.1547699 -0.05633545q-0.47547913 0.18060303 -0.66615295 0.6596985q-0.19644165 0.4935913 0.033554077 0.9720459q0.25030518 0.46972656 0.8744812 0.7183533l0.9128876 -2.2937622zm5.0642395 -2.8791199l-0.6066742 1.5243225l-5.777252 -2.3013306l0.56622314 -1.4227295l0.81288147 0.32382202q-0.43618774 -0.5942383 -0.494812 -0.9539795q-0.073150635 -0.36550903 0.07130432 -0.7284546q0.20799255 -0.5226135 0.6947632 -0.90057373l1.130249 1.005249q-0.402771 0.29370117 -0.5298767 0.6130676q-0.1328888 0.33389282 -0.030853271 0.62683105q0.087524414 0.2871704 0.5000305 0.60284424q0.39797974 0.309906 1.8785858 0.8996887l1.7854309 0.7112427zm1.7788544 -4.469574l-6.707489 0.035980225l0.64134216 -1.6114502l3.3800201 0.084991455l1.1141815 0.073791504q-0.33117676 -0.26646423 -0.43574524 -0.34176636q-0.21211243 -0.18539429 -0.4242096 -0.37080383l-2.5133514 -2.2626038l0.62979126 -1.5824127l4.8643494 4.595093l-0.54888916 1.3791809zm1.3234711 -8.691742l0.8679657 -1.4202576q0.7263489 0.62571716 0.9075928 1.4379578q0.18125916 0.8122406 -0.19430542 1.7558746q-0.6008911 1.5098114 -1.8768616 1.8424988q-1.0149536 0.26844788 -2.219757 -0.21147156q-1.4370575 -0.57244873 -1.9494934 -1.6511688q-0.5124359 -1.0787048 -0.055984497 -2.225586q0.5142212 -1.2920685 1.665329 -1.6912994q1.1423492 -0.4195404 2.881424 0.32366943l-1.5253448 3.832611q0.6937866 0.24273682 1.2098694 0.044647217q0.5160675 -0.19807434 0.7298584 -0.73521423q0.13865662 -0.34843445 0.048187256 -0.6703949q-0.10499573 -0.32774353 -0.4884796 -0.63186646zm-1.5039978 -0.70002747q-0.67349243 -0.25146484 -1.1547546 -0.05633545q-0.47549438 0.18060303 -0.6661682 0.6596832q-0.19644165 0.4935913 0.033554077 0.9720459q0.25030518 0.46972656 0.8744812 0.71836853l0.9128876 -2.2937622zm5.0642395 -2.8791351l-0.6066742 1.5243378l-5.777252 -2.3013458l0.56622314 -1.4227142l0.81288147 0.32380676q-0.4361725 -0.594223 -0.494812 -0.95396423q-0.073150635 -0.3655243 0.07130432 -0.7284546q0.20799255 -0.5226288 0.6947632 -0.90057373l1.130249 1.0052643q-0.40275574 0.29367065 -0.5298767 0.61305237q-0.1328888 0.33390808 -0.030853271 0.62683105q0.087524414 0.28715515 0.5000305 0.60284424q0.39797974 0.309906 1.8785858 0.8996887l1.7854309 0.7112274z" fill-rule="nonzero"></path><path fill="#000000" fill-opacity="0.0" d="m228.7618 306.76306l27.464554 -69.00787l26.64569 10.6141815l-27.46457 69.00786z" fill-rule="nonzero"></path><path fill="#000000" d="m255.22008 295.77582l-7.9836426 -3.1802368l0.612442 -1.5388794l7.9836426 3.1802673l-0.612442 1.5388489zm-2.3315582 -5.8462524l-0.8014374 1.2953796q-0.74946594 -0.56762695 -0.9160614 -1.2899475q-0.17532349 -0.7425842 0.27534485 -1.8749695q0.40444946 -1.0162048 0.8476715 -1.411499q0.4344635 -0.4156189 0.89276123 -0.46850586q0.44378662 -0.058685303 1.4453735 0.340271l1.7796631 0.7257385q0.7693176 0.30645752 1.1611023 0.3784485q0.3772583 0.06616211 0.8791199 0.03060913l-0.6008911 1.5098267q-0.1828003 -0.0055236816 -0.507782 -0.034088135q-0.16247559 -0.014251709 -0.21179199 -0.017089844q0.23590088 0.5480957 0.24551392 1.0733032q0.015350342 0.51071167 -0.18685913 1.0187988q-0.35824585 0.90008545 -1.0452576 1.2319031q-0.695755 0.31152344 -1.4360657 0.01663208q-0.49353027 -0.19659424 -0.77848816 -0.57922363q-0.27919006 -0.39712524 -0.31484985 -0.8991089q-0.050186157 -0.50772095 0.12243652 -1.3640137q0.2185669 -1.1407166 0.21194458 -1.6311035l-0.14515686 -0.05783081q-0.44999695 -0.17926025 -0.7253723 -0.03665161q-0.2753601 0.14257812 -0.5180359 0.75231934q-0.16177368 0.40649414 -0.09454346 0.70236206q0.07299805 0.28137207 0.42166138 0.58843994zm2.0630188 -1.5496826q-0.028457642 0.32504272 -0.13752747 1.021637q-0.12358093 0.6908264 -0.07382202 0.94610596q0.10217285 0.3770752 0.42152405 0.50427246q0.31933594 0.12722778 0.6585541 -0.0067443848q0.3304596 -0.15429688 0.4749298 -0.51724243q0.1675415 -0.42099 0.04196167 -0.9083252q-0.093444824 -0.356781 -0.36358643 -0.5653076q-0.16560364 -0.13323975 -0.7171936 -0.3529663l-0.3048401 -0.12142944zm-1.8253479 -4.160309l0.56622314 -1.422699l0.84191895 0.33535767q-0.31991577 -0.46380615 -0.39630127 -1.0324402q-0.085128784 -0.58895874 0.14598083 -1.1696472q0.39866638 -1.001709 1.4598541 -1.386322q1.0669556 -0.3991089 2.489502 0.16757202q1.4370422 0.57244873 1.9668274 1.607605q0.5152588 1.0293884 0.11657715 2.031067q-0.19067383 0.47909546 -0.5353699 0.79589844q-0.34472656 0.31680298 -0.9767761 0.5527649l2.9176636 1.1622314l-0.6124573 1.5388489l-7.9836426 -3.1802368zm3.387909 -0.3996277q0.9725647 0.38742065 1.5930786 0.18048096q0.6204834 -0.2069397 0.8400574 -0.75860596q0.21377563 -0.5371399 -0.06851196 -1.0532532q-0.29681396 -0.5218811 -1.2693481 -0.90930176q-0.8999939 -0.35849 -1.4799194 -0.16903687q-0.5944214 0.1836853 -0.808197 0.7208557q-0.2253418 0.5661621 0.059906006 1.117096q0.29103088 0.5364075 1.1329346 0.87176514zm0.39730835 -9.111145l1.2192993 0.48571777l-0.4159851 1.0452576l2.3225098 0.9251709q0.7112732 0.2833252 0.83895874 0.30056763q0.12768555 0.017211914 0.2552185 -0.049713135q0.11880493 -0.087249756 0.1765747 -0.23242188q0.08666992 -0.21774292 0.08300781 -0.67333984l1.242279 0.34350586q0.024230957 0.6151428 -0.24731445 1.2974548q-0.16177368 0.40649414 -0.4253235 0.6883545q-0.27804565 0.27609253 -0.5593262 0.34902954q-0.29003906 0.05267334 -0.68182373 -0.01928711q-0.29312134 -0.0663147 -1.1059875 -0.39013672l-2.5112305 -1.0003357l-0.27734375 0.6968384l-1.2193146 -0.48568726l0.27734375 -0.6968384l-1.1467438 -0.45681763l-0.28752136 -1.8973389l2.0467072 0.8152771l0.41601562 -1.0452576zm3.083191 0.40826416q-0.7548218 -0.3006897 -1.3158569 -0.9614563q-0.5755615 -0.66656494 -0.66690063 -1.4934387q-0.10586548 -0.8326721 0.23504639 -1.689209q0.519989 -1.3065796 1.7115479 -1.8074341q1.1770325 -0.50665283 2.483429 0.013763428q1.306427 0.52041626 1.8364868 1.723877q0.52130127 1.1831665 0.0128479 2.4606934q-0.31777954 0.7984619 -0.969574 1.3797913q-0.6459961 0.566803 -1.4784546 0.67248535q-0.84698486 0.09991455 -1.8485718 -0.29907227zm0.7110901 -1.5332031q0.8564453 0.341156 1.482727 0.11972046q0.6117554 -0.2272644 0.84866333 -0.82247925q0.24264526 -0.6097107 -0.051330566 -1.1809387q-0.30270386 -0.5915222 -1.1736755 -0.93847656q-0.8418884 -0.33535767 -1.4536743 -0.10812378q-0.6204834 0.2069397 -0.8631592 0.8166809q-0.23690796 0.59521484 0.065826416 1.1867371q0.288208 0.5857239 1.1446228 0.9268799zm-0.6807556 -6.6981506l0.56622314 -1.4227295l0.84191895 0.33538818q-0.31991577 -0.46380615 -0.39630127 -1.0324707q-0.08514404 -0.5889282 0.14596558 -1.1696167q0.39868164 -1.001709 1.4598694 -1.386322q1.0669556 -0.3991089 2.489502 0.1675415q1.4370422 0.57244873 1.9668274 1.607605q0.5152283 1.0293884 0.11657715 2.0310974q-0.19067383 0.47909546 -0.5353699 0.79589844q-0.34472656 0.31680298 -0.9767761 0.5527649l2.9176636 1.1622314l-0.6124573 1.5388489l-7.9836426 -3.1802368zm3.387909 -0.3996277q0.9725647 0.38742065 1.5930481 0.18048096q0.6205139 -0.2069397 0.8400879 -0.75860596q0.21377563 -0.5371399 -0.06851196 -1.0532532q-0.29681396 -0.5218811 -1.2693787 -0.90930176q-0.8999634 -0.35849 -1.4798889 -0.16903687q-0.5944214 0.1836853 -0.808197 0.7208252q-0.2253418 0.5661926 0.059906006 1.1171265q0.29101562 0.5364075 1.1329346 0.87176514z" fill-rule="nonzero"></path></g></svg>

